<svg xmlns="http://www.w3.org/2000/svg" width="471.455" height="374.047" viewBox="0 0 471.455 374.047">
  <g id="Character_clumsy" data-name="Character/clumsy" transform="translate(0)">
    <g id="Accent" transform="translate(80.361 92.538)">
      <path id="Fill-1" d="M293,145.24a7.929,7.929,0,0,1,2.317-1.74,1.682,1.682,0,0,0-.025,1.809c.273.59.456,1.218.719,1.814a9.782,9.782,0,0,1,.584,1.237c.135.49.065.987.245,1.471A19.936,19.936,0,0,1,291,146.655c.339-.049,1.233-.034,1.518-.281.233-.2.282-.837.485-1.134" transform="translate(-159.012 -73.366)" fill="#244d90" fill-rule="evenodd"/>
      <path id="Fill-3" d="M323.185,86.749c-.93.741-.93.741-.962,2a1.861,1.861,0,0,0,.962-2m45.08,3.3c.43.035.534-1.208.629-1.572l-.424-.059c-.194.208-.958,1.569-.205,1.631M303.6,102.774a90.36,90.36,0,0,0-2.34-10.011c-.484-1.609-1.027-3.2-1.613-4.776-.508-1.363-1.476-2.842-1.645-4.272a44.838,44.838,0,0,1,4.12,4.724c1.269,1.523,2.6,3.018,3.8,4.6a4.02,4.02,0,0,1,.959,2.208,4.481,4.481,0,0,1-.859,2.223,12.358,12.358,0,0,0-.846,2.644,3.365,3.365,0,0,0,.444,2.259,4.6,4.6,0,0,0,1.795-1.148c.537-.656.991-1.393,1.5-2.073,1.106-1.481,2.224-2.953,3.325-4.438a62.179,62.179,0,0,0,5.794-9.3c1.676-3.357,3.176-6.805,4.81-10.184.344-.711.485-1.491,1.4-1.49a7.742,7.742,0,0,1,1.892.589,2.155,2.155,0,0,0,.482.084,1.194,1.194,0,0,0,.08.47c.168.2.228.122.462.11.27-.015.465-.184.76-.164a5.509,5.509,0,0,1,1.193.42V74.3c1.223.628,4.185,2.729,4.828.347.056.434-.061,1.215.365,1.493.281.184.638-.008.943.031a5.264,5.264,0,0,1,1.074.455c.024-.641.513-.569.988-.655a5.049,5.049,0,0,1,1.787-.344c.63.109,1.087.392,1.721.052.426-.228.823-.548,1.251-.789a1.35,1.35,0,0,0,.7-.849c.206-.481.169-.372.66-.236,1.052.292,1.461-.976,1.646-1.836a7.141,7.141,0,0,0-1.453-6.041,28.679,28.679,0,0,0-6.007-5.708c-2.155-1.409-4.446-3.152-6.962-3.835,2.008-4.5,4.871-8.683,7.423-12.89.73.168,1.168.564,1.949.44.616-.1.588-.05.816.59.2.572.315.655.862.83.567.182.116-.172.539.275a3.559,3.559,0,0,0,.525.578c.858.6,1.979.255,2.91.629.643.259.326.588.655,1.033.349.471.94.225,1.423.149,1.007-.158,1.31.181,1.522,1.128.158.7.262,1.067,1.016,1.214.427.084,1.091-.257,1.364.019.1.105.061.4.109.536a1.9,1.9,0,0,0,.419.641,3.9,3.9,0,0,0,1.333.915c.463.194.951.085,1.39.255.691.266.523,1,.5,1.583.392-.094.483-.083.717-.378.107-.135.049-.362.26-.42a3.491,3.491,0,0,1,1.3.728c.407.5-.005,1.218.1,1.806a3.29,3.29,0,0,0,.954,1.455l.369-1.065c.183.237.438.407.517.7.041.155-.085.363-.015.519.2.44.4.161.766.177.325.013,1.2.262,1.045.77-.1.342-.78.263-.7.729.1.566.832.2,1.129.313.389.154.235.486.368.823.234.593.705.645,1.194.936a2.135,2.135,0,0,1,.892,1.128c.276.616.247.45.843.4.366-.034.558.041.7.379.119.276-.084.616.019.869.128.313.791.668,1.02.987a25.86,25.86,0,0,1,1.4,2.859,9.982,9.982,0,0,0,.766,1.182c.377.5.612.407,1.121.677.824.437.584,1.591.675,2.354a1.752,1.752,0,0,0,.425,1.054c.168.177.761.38.644.734-.142.428-.616-.03-.526.637.072.532.677.968.812,1.5.093.366-.029.715.066,1.084a9.509,9.509,0,0,0,.571,1.088c.153.381-.088.862.043,1.152.152.337.711.25.861.688.164.478-.22,1.231-.289,1.72-.044.312-.209.653.055.91.225.219.758.18.528.722-.106.251-.505.2-.549.578-.033.292.3.735.486.933.487.526,1.408.964.745,1.634-.114.115-.255.061-.363.218a3.152,3.152,0,0,0-.215.717,5.54,5.54,0,0,1-.725,1.4c-1.167,1.644-3.1,2.418-4.385,3.911-1.568-1.561-3.172-3.083-4.648-4.731a42.015,42.015,0,0,0-3.9-4.068,15.519,15.519,0,0,1-2.2-1.906,15.733,15.733,0,0,1-1.252-2.461c-.878-1.593-2.144-2.932-3.086-4.485-1.847,1.2-1.075,4.276-.543,6A15.59,15.59,0,0,0,354.73,84.3a10.539,10.539,0,0,1,1.319,2.548,2.36,2.36,0,0,1-.517,1.989c-.623.873-1.35,1.691-2.006,2.543L348.739,97.6c-.578-.835-1.531-.288-2.3-.128a30.745,30.745,0,0,1-3.425.259c-1.194.113-2.4.311-3.586.5-1.06.172-.356.663-.868,1.248-1.084-1.954-3.156-.718-4.848-.546-1.062.109-2.19.052-3.231.185s-2.091.493-3.18.6c-2.053.2-3.909.9-5.924,1.273-1.064.195-2.138.332-3.2.527-.378.069-1.044.1-1.255.493-.25.461.258,1.435.4,1.851a7.1,7.1,0,0,0,.768,2.088c.323.4.405.156.821.139.481-.021.285.083.618.455a2.127,2.127,0,0,0,1.557.515c.26.023.78-.024.982.157.284.254.038.271.06.661.037.681.979,1.189,1.53,1.456a2.244,2.244,0,0,0,1.13.283c.25-.018.548-.259.8-.159.356.142.329.814.535,1.1.382.527.894.136,1.4.4.6.319.94,1.076,1.511,1.451,1.13.743,2.431.825,2.993-.569.225.467.756,1.19.557,1.66a2.46,2.46,0,0,1-1.112.929c-1.1.6-2.185,1.2-3.242,1.879a77.655,77.655,0,0,1-7.367,4.578,33.076,33.076,0,0,1-8.071,3.2,14.208,14.208,0,0,1-8.558-.991,4.521,4.521,0,0,0,.488-2.236q.034-1.3.053-2.6c.021-1.729.012-3.458-.049-5.185a72.1,72.1,0,0,0-1.115-10.3" transform="translate(-240.53 -22.071)" fill="#244d90" fill-rule="evenodd"/>
      <path id="Fill-13" d="M449.234,127.484a13.928,13.928,0,0,0,.616-2.866c.043-.7-.216-1.734.2-2.341.176-.258.492-.348.594-.659a7.184,7.184,0,0,0-.01-1.023,8.423,8.423,0,0,1,.631-2.043c.593-1.506.61-3.086,1.105-4.612.271-.836.779-1.55,1.077-2.373a9.992,9.992,0,0,0,.495-2.328,18.9,18.9,0,0,1,.293-2.5c.189-.771.424-1.526.594-2.3A42.532,42.532,0,0,1,456.352,99c.245-.673.422-1.8,1.019-2.253a2.166,2.166,0,0,1,1.507-.21,1.709,1.709,0,0,1,1.425.544,20.939,20.939,0,0,0,1.362,1.85c.575.584,1.293,1.089,1.81,1.723.406.5.174.668-.263,1.093.565.073,1.03-.082,1.44.345a7.115,7.115,0,0,1,1,1.691,10.564,10.564,0,0,1,.846,3.59l.477-.743a2.078,2.078,0,0,0,1.076,1.344c.712.277.69.187.692.985,0,1.147.954,1.868,1.554,2.735a8.442,8.442,0,0,1,.883,1.589,3.412,3.412,0,0,1,.036,1.877c-.1,1.073.932,1.894,1.555,2.654a1.959,1.959,0,0,1,.413.642c.08.215-.031.351.131.58.292.415.9.3,1.139.813.221.477-.085.957-.133,1.428a5.06,5.06,0,0,0,.624,2.134,10.822,10.822,0,0,1,.575,2.3,8.442,8.442,0,0,1,.064,1.369c-.008.211-.171.742-.032.934.179.249.572-.036.736.24.336.566-.919.747-1.164.835a4.147,4.147,0,0,1,.91.573c.313.344.119.549.249.935.142.421.648.535.806.908s-.154.463-.319.78c-.4.773-.041,1.931.118,2.724.064.318.034,1.147.233,1.393.127.157.412.1.523.238.233.289-.012.406-.108.738a2.411,2.411,0,0,0,.012,1.287c.106.4.365.764.438,1.169.079.444-.142.6-.293,1.007a6.674,6.674,0,0,0,.014,2.991c.134,1.089-.247,2.118.037,3.126l.91-.393q-.144.72-.288,1.44-.071.355-.142.71.089.461-.309.365c-.521.15-1.324-.67-1.754-.912-1.291-.729-2.684-1.252-4.024-1.882a31.621,31.621,0,0,1-3.833-2.372c-1.314-.859-2.7-1.595-3.981-2.5-5.541-3.932-11.548-7.249-17.326-10.826,1.619.183,1.912-1.961,2.234-3.1" transform="translate(-416.804 -49.257)" fill="#244d90" fill-rule="evenodd"/>
      <path id="Fill-17" d="M519.578,53.509c-.867.252-.669.987-.339,1.625.333-.315.922-.685,1.078-1.135.193-.559-.24-.635-.739-.49m-24.24,21.728c.046.223.1,1.133.267,1.274.155.128.954-.052,1.166-.064a5.785,5.785,0,0,1,1.815.258c1.09.27,1.287-.409,1.292-1.423a5.193,5.193,0,0,0,4.016,2.8,18.91,18.91,0,0,0,2.459.348,9.15,9.15,0,0,0,1.879-.131c.378-.066.723-.3,1.08-.366.781-.146.078.417.642.567a8.472,8.472,0,0,0,.906-.211c.345-.021.693.037,1.038.019.783-.041,1.039-.477,1.659-.813a1.239,1.239,0,0,1,.9-.1c.383.054.092.181.539.1a3.065,3.065,0,0,0,.523-.241,6.523,6.523,0,0,0,2.163-1.378c.478-.482,1.081-.807,1.558-1.285.172-.172.266-.383.417-.562.2-.231.211-.173.458-.345a1.779,1.779,0,0,0,.674-.618,4.687,4.687,0,0,0,.328-1.851,9.678,9.678,0,0,0-1.155-5.557c-1.033-1.919-1.891-3.948-3.1-5.767a37.239,37.239,0,0,0-3.817-4.634,8.367,8.367,0,0,0-1.258-1.2c-.3-.207-.692-.3-.975-.525-.673-.538-.345-1.525-.345-2.273-.213.376-.546.939-1.055.815-.335-.081-.346-.458-.588-.605-.187-.114-.406-.056-.613-.078A98.288,98.288,0,0,1,511.381,39.5c3.583,3.516,7.169,7.058,10.648,10.679,1.8,1.868,3.452,3.862,5.239,5.737,1.878,1.971,3.8,3.9,5.7,5.853a6.656,6.656,0,0,0-1.46,1.482,8.329,8.329,0,0,1-1.142,1.546c-1.008,1.144-1.49,2.848-2.113,4.225a.865.865,0,0,0-.124.6c.02.149.174.281.177.464a.847.847,0,0,1-.244.56c-.128.164-.507.351-.538.565-.038.256.225.426.312.666.385,1.053-.88,1.8-1.307,2.623a1.259,1.259,0,0,0-.042,1.365c.247.371.792.515.5,1.079-.181.353-.684.159-.61.651.04.263.549.51.073.8-.385.233-.843-.184-.663.539.08.323.512.648.389,1.009s-.75.409-1,.685a2.7,2.7,0,0,0-.52,1.381c-.213,1.541-.568,2.94-.922,4.453-.237,1.014.373,1.032,1.274,1.038-.607.852-1.205,1.706-1.853,2.527a9.277,9.277,0,0,0-1.1,3.022q-.536,1.752-1.053,3.51a2.355,2.355,0,0,0-.056,1.591,1.565,1.565,0,0,1,.127,1.259c-2.81-1.611-5.463-3.4-8.129-5.244-1.278-.883-2.558-1.762-3.822-2.665a9,9,0,0,1-2.615-2.543c-1.485-2.463-3.671-4.395-5.657-6.473a19.943,19.943,0,0,0-3.186-3.172c-1.194-.777-2.461-1.464-3.667-2.236l1.338-1.836" transform="translate(-494 -20.019)" fill="#244d90" fill-rule="evenodd"/>
      <path id="Fill-35" d="M367.439,171.424c-1.145-.545-2.2-1.279-3.314-1.886a12.961,12.961,0,0,1-2.673-1.511,4.331,4.331,0,0,0-1.081-.622A9.767,9.767,0,0,1,359,166.355a10.636,10.636,0,0,1,3.618-1.178,9.479,9.479,0,0,0,1.68.092,3.611,3.611,0,0,0,1.506-.754c.844-.626,1.218-.533,2.132-.015.218.124.516.4.782.392.43-.013.365-.277.551-.572.17-.268-.046-.3.264-.307.187,0,.271.253.48.294.4.077,1.143-.31,1.539-.382a6.986,6.986,0,0,1,1.838.065,5.169,5.169,0,0,0,1.992-.333c.585-.2,1.148-.48,1.739-.659.771-.232.927.069,1.639.234,1.084.249,2.135-1.312,3.128-.487a40.6,40.6,0,0,1-5.288,5.713,40.025,40.025,0,0,1-3.079,2.779c-.489.389-.989.766-1.488,1.145-.226.172-.453.344-.678.518-.4.312-.367.406-.751.226-.516-.242-.916-.753-1.482-1s-1.136-.44-1.687-.7" transform="translate(-277.178 -83.113)" fill="#244d90" fill-rule="evenodd"/>
      <path id="Fill-37" d="M371.794,80.326c-.042.954-.634,1.736.2,2.543q.037-.71.074-1.421c.026-.494.275-1.029-.277-1.122m.933-4.158a1.465,1.465,0,0,0,.717.926c.565.3,1.347-.188,1.741.242s.35,1.449.866,1.8c.165.113.348.034.545.182.169.127.176.428.348.56.282.217.522-.005.788.122.3.142.347.482.426.78s.076.67.291.9a6.336,6.336,0,0,0,1.185.673q1.721,1.07,3.441,2.142c-.342.346-1.1.739-1.184,1.249-.059.348.182.386-.107.66a4.31,4.31,0,0,1-.752.336,8.56,8.56,0,0,1-2.021.768c-.846.184-1.694.1-2.537.3a10.42,10.42,0,0,1-2.672.354c-.78-.018-1.517-.235-2.29-.3-1.449-.125-3.328.005-4.51-1.016A10.273,10.273,0,0,1,367.624,84q.537-1.377,1.094-2.744a51.13,51.13,0,0,1,2.464-5.356c.194,1.219.66-.386,1.119-.4.338-.009.341.423.425.668" transform="translate(-282.255 -38.485)" fill="#244d90" fill-rule="evenodd"/>
      <path id="Fill-45" d="M559.332,101.207a8.99,8.99,0,0,0-1.748.514c-.442.2-.611.311-1-.036-.209-.188-.248-.469-.517-.609a2.253,2.253,0,0,0-.911-.108c-.72-.038-1.44-.054-2.16-.08l2.483-2.387c.129.221.474,1.034.727,1.086.076.015.313-.239.44-.249a.7.7,0,0,1,.354.1c.306.136.443.45.784.534a4.157,4.157,0,0,0,1.055-.081c.093.321.332.9.488,1.313" transform="translate(-549.104 -50.283)" fill="#244d90" fill-rule="evenodd"/>
      <path id="Fill-47" d="M548.039,80.624c-.144-.6.166-1.21.071-1.816l.205-.308a6.988,6.988,0,0,0,.479,1.04,4.868,4.868,0,0,1,.586.823,1.752,1.752,0,0,1-.336,1.547c-.374-.418-.868-.716-1.006-1.286" transform="translate(-536.798 -40.024)" fill="#244d90" fill-rule="evenodd"/>
      <path id="Fill-51" d="M541.423,85.5c.5.011.311.246.379.621a1.8,1.8,0,0,0,.289.647c.258.4.878.8.524,1.345-.3.46-.318-.115-.569.112s1.474,2.008,1.734,2.105c.141.052.3-.108.429,0s-.043,1.123-.038,1.331a1.806,1.806,0,0,1-.395,1.524c-.516.453-1.366.47-1.977.728a10.033,10.033,0,0,1-1.252.547c-.465.125-.866-.134-1.266-.074a7.341,7.341,0,0,0-1.195.68c-.409.2-.489.226-.888.074a2.177,2.177,0,0,1-.8-.437c-.225-.289-.053-.284-.083-.677-.054-.717-.8-.634-1.319-.836,1.019-.305,1.583-1.4,2.084-2.294a7,7,0,0,0,.791-1.307c.149-.553-.263-.91-.511-1.372.338.137,1.662.746,1.025.027-.2-.223-1.428-.588-.927-1.171.3-.35.693.365,1.041.3.4-.081.884-.758,1.221-.981.407-.27,1.2-.9,1.7-.892" transform="translate(-525.259 -43.615)" fill="#244d90" fill-rule="evenodd"/>
      <path id="Fill-5" d="M156.449,61.864a18.291,18.291,0,0,0-.8-5.036c-1.017-3.352-3.173-6.29-3.866-9.748-.334-1.664-.226-3.351-.546-5.019a34.824,34.824,0,0,1-.387-5.339c-.063-1.756-.127-3.513-.1-5.271a8.965,8.965,0,0,0,.025-2.117c-.134-.512-.339-.32-.772-.5.3-.186.921-.277.986-.664.044-.265-.214-.555-.2-.847a2.93,2.93,0,0,1,.2-.705c.381-1.23.922-3.123.221-4.3.422-.071.592-.2.982-.024a6.791,6.791,0,0,1,1.206.91,22.966,22.966,0,0,1,2.1,1.823A44.426,44.426,0,0,1,158.8,29.08c1.066,1.374,2.17,2.735,3.267,4.085.853,1.049,2.206,2.646,3.395,1.233.356.475.583.952,1.167,1.182a3.37,3.37,0,0,1,1.531,1.175c.1.122.411.639.545.687.27.1.116-.085.327-.222.333-.215.491-.361.61.233.053.263-.088.512.04.773a1.976,1.976,0,0,0,.716.617,8.156,8.156,0,0,0,1.678.466c.926.311,1.516,1.715,2.532,1.042.369-.245.661-.626,1.143-.366.358.194.42.673.937.483.271-.1.493-.454.807-.57a3.076,3.076,0,0,1,.694-.142,8.094,8.094,0,0,0,1.542-.2,6.546,6.546,0,0,0,2.582-2.131c.553-.608.382-.989.228-1.762-.131-.657-.268-1.313-.429-1.964a16.6,16.6,0,0,0-1.355-3.746,24.259,24.259,0,0,0-2.736-3.729c-2-2.5-3.891-5.143-6.064-7.5-.408-.443-1.107-.924-1.032-1.6.082-.741.923-.381,1.439-.252a32.722,32.722,0,0,1,3.98,1.534c.731.287,1.709.847,2.492.479.738-.347,1.908-1.279,1.495-2.132a8.206,8.206,0,0,1-.828-1.87c-.15-.661-.243-1.335-.381-2-.326-1.576-.745-3.131-1.214-4.67-.895-2.937-1.987-5.808-2.972-8.715a46.161,46.161,0,0,1,11.518,2.9c-.18.37-.517.9-.381,1.332.167.533.886.354,1.064.721.211.433-.429.682-.239,1.237a8.192,8.192,0,0,0,.882,1.425c-1.243.8-.759-.864-1.631-.977-.242,1.325.316,1.948.831,3.063.459.993-.6.9-.812,1.641.607.1,1.023-.178,1.288.538.113.3-.057,1.419.306,1.45.268.023.183-.465.4-.511.269-.056.959.915,1.128,1.1a4.187,4.187,0,0,0-1.832.357c.451.441.906.873,1.375,1.3-.429.177-1.158.217-1.378.7-.2.445.106,1.247.149,1.708-.183-.276-.45-.927-.735-1.1-.373-.233-.481,0-.458.509.043.94,1.269.88,1.441,1.629s-.891.225-.918.962c-.016.42.474.779.232,1.223.543-.3.609-.484.9-1.078a5.669,5.669,0,0,1,.409,2.721c-.2.637-.622.48-.14,1.1.179.229.426.408.432.72.014.72-1.015,1.277-.216,1.917.31.249.645.276.8.708.137.373,0,.872.108,1.278a4.5,4.5,0,0,0,1.392,1.972,19.645,19.645,0,0,0,1.573,1.527,2.407,2.407,0,0,1,.635.688c.09.132-.02.257.1.38.141.143.5.128.689.165.624.122,1.383.374,1.591,1.068.762-.577,1.537.125,2.276.353a1.263,1.263,0,0,0,1.053-.052c.555-.309.529-.355,1.194-.259,1.853.268,3.38-1.663,4.412-2.961a7.163,7.163,0,0,0,1.36-3.3c.231-1.386.471-2.763.6-4.164a69.172,69.172,0,0,0,.06-8.773,69.8,69.8,0,0,1,9.7,6.509,94.975,94.975,0,0,1,8.423,7.982c-.7.045-1.373.293-2.075.307a2.276,2.276,0,0,1-1-.178,2.011,2.011,0,0,1-.478-.307.312.312,0,0,0-.531-.133c-.688-.056-1.325-.2-2.015-.3a8.753,8.753,0,0,0-2.661.286c-1.6.277-3.307.093-4.857.592-1.356.436-2.769,1.06-4.075,1.625a17.1,17.1,0,0,0-3.425,2.583,17.749,17.749,0,0,1-1.937,1.1,7.3,7.3,0,0,0-1.542,1.8c-1.067,1.381-2.258,2.655-3.327,4.029a7.653,7.653,0,0,0-1.179,2.012c-.139.374-.151.794-.285,1.159a3.331,3.331,0,0,1-.544.792c-.655-1.763-1.289-3.533-1.967-5.287-.261-.674-1.425-3.911-2.336-2.669-.784,1.068-.34,3.262-.095,4.454.328,1.6.691,3.189,1.049,4.781.71,3.158,1.36,6.345,2.264,9.454a3.5,3.5,0,0,1,.19.654c.026.362.151.156-.1.409-.127.129-.428.091-.548.245a3.63,3.63,0,0,0-.128,1.6c.03.649.393.934.563,1.512.148.505-.1,1.024-.109,1.533-.013,1.262.643,2.634.87,3.884.145.793-.311,2.048.8,2.2-.277.466.051.665.294,1.009a5.525,5.525,0,0,1,.513,1.352,4.729,4.729,0,0,1,.477,1.165c.042.392-.132.767,0,1.165.159.47.458.524.854.728s.27-.033.4.352c.059.169-.02.56.017.756a4.653,4.653,0,0,0,1.523,2.189c.23.242.527.8.809.954.412.219,1.029-.161,1.407.041.347.186.71,1.666.837,2.025.271.765.528,1.536.786,2.306.947,2.818,1.878,5.642,2.814,8.464-.448-.011-1.195-.5-1.628-.3-.5.231-.177.913-.364,1.284-.133.266-.91.225-1.276.245a3.6,3.6,0,0,1-1.431-.3,19.165,19.165,0,0,0-3.115-.285,59.688,59.688,0,0,1-6.558-.781c-2.05-.457-4.014-1.217-6.026-1.808.939-.494,1.114-1.711,1.383-2.638a4.9,4.9,0,0,1,.493-1.384,8.621,8.621,0,0,0,.834-1.687,18.025,18.025,0,0,0,.581-7.657,31.67,31.67,0,0,0-5.066-13.792,35.988,35.988,0,0,0-4.484-5.53,41,41,0,0,0-5.456-5.024,21.022,21.022,0,0,1-2.757-1.609,10.5,10.5,0,0,0-2.329-1.114,10.574,10.574,0,0,0-3.1-1.259,8.89,8.89,0,0,0-2.73-.505c-.615.077-.385.364-.746.647-.477.374-.3-.153-.658-.285-.3-.112-.486.173-.735.263a2.144,2.144,0,0,1-.593.017c-.274.166-.228.751-.384,1.028a4.371,4.371,0,0,0-.521.839,1.465,1.465,0,0,0,.146,1.18c.21.425.527.634.02,1.046,1.265.832.484,2.5,1.436,3.512.323.342,1.051.821,1.04,1.353-.012.574-1.042.8-.512,1.374.483.521,1.523.274,2.081.738s.376,1.272.426,1.916c.039.492.518,1.087.319,1.562-.13.312-.357.266-.367.606a3.708,3.708,0,0,0,.3.909l.632-.276a8.136,8.136,0,0,1,.319,1.115,2.579,2.579,0,0,1-.223,1.071,6.743,6.743,0,0,0,.163,1.587,2.5,2.5,0,0,0,.493,1.561c.232.254.552.294.8.49a2.364,2.364,0,0,1,.465.673l-1.089-.321a3.007,3.007,0,0,0,.87,1.52l.228-1.2a3.353,3.353,0,0,1,.347,1.208c-.02.387-.193.759-.2,1.158,0,.778.571,1.288.336,2.037a3.249,3.249,0,0,0-.062,2.307,11.513,11.513,0,0,1,.651,2.475c.067.965-.368,1.8-.277,2.776.041.454.231.775-.275.825-.451.045-.942-.328-1.332-.514-1.927-.918-3.847-1.85-5.769-2.777.358-.5.27-.514.047-1.128q-.253-.694-.5-1.387c-.356-.983-.713-1.965-1.081-2.944a31.57,31.57,0,0,1-1.93-5.551,33.19,33.19,0,0,1-.171-5.232" transform="translate(-18.012 0.5)" fill="#244d90" fill-rule="evenodd"/>
      <path id="Fill-7" d="M19.821,403l1.908-1.2-1.112-.849c-.4-.307-.583-.592-.82.01-.249.634.048,1.385.024,2.042m.809-4.621c-.9,1.046.777,1.349,1.422,1.48-.1-.5-.477-2.586-1.422-1.48M1.014,394.7c.29-.889.76-3.347,2.1-3.195.321.037.611.357.992.384a6.237,6.237,0,0,0,.967-.091,5.439,5.439,0,0,1,2.139.206,8.31,8.31,0,0,0,2.22.69,8.606,8.606,0,0,1,1.848.161c1.021.3.952,1.2.808,2.1a3.294,3.294,0,0,0,.494-.576c.141-.26.142-.552.362-.779.436-.452.937-.238,1.475-.2.609.044,1.39-.363,1.974-.135.26.1.413.392.684.513a2.573,2.573,0,0,0,.761.156,13.916,13.916,0,0,0,1.684.248,6.916,6.916,0,0,1,2.092.135c.683.184,1.336.465,2.017.652.757.208,1.54.228,2.309.378a34.785,34.785,0,0,0,4.609,1.078,23.87,23.87,0,0,1,2.43.175,3.363,3.363,0,0,1,1.027.168c.229.158.386.811.516,1.079,1.4,2.9,2.424,5.985,3.545,9q1.749,4.706,3.5,9.413c.551,1.474,1.255,2.944,1.712,4.448.422,1.391-1.219,2.37-2.092,3.245a63.116,63.116,0,0,1-6.725,6.077,39.766,39.766,0,0,1-7.988,4.29,33.524,33.524,0,0,1-8.934,2.414c-1.584.224-3.177.376-4.772.5a20.721,20.721,0,0,1-4.528-.295c.156-.364.664-1,.6-1.405-.017-.113-.25-.3-.3-.436a1.539,1.539,0,0,1-.072-.567c-.022-.917.337-1.807-.839-2.133q-.059.751-.118,1.5a2.712,2.712,0,0,1,.135-2.633l1.2,1c-.082-.243-.751-1.787-.565-1.932s.517.241.715.055c.161-.152-.018-.51.032-.7.082-.311.419-.551.416-.891-.005-.454-.587-.8-.862-1.1a1.664,1.664,0,0,1-.566-1.319c0-.808-.376-.764-.966-1.3a2.688,2.688,0,0,1-.521-3.221l-1.266-.1c.391-.985.794-1.968,1.177-2.956s-.139-1.489-.394-2.4L4.3,418.132c-.164-1.854-.655-3.724-.423-5.593.072-.58.18-.545-.086-.978-.191-.311-.462-.553-.63-.891a5.962,5.962,0,0,1-.5-2.136,11.078,11.078,0,0,0-.224-2.079c-.145-.5-.62-.775-.735-1.325-.2-.955,1.326-2.622.439-3.329-.452-.361-1.014-.016-1.34-.605a9.16,9.16,0,0,1-.552-1.751,3.521,3.521,0,0,1-.069-2.429c.277-.772.571-1.533.826-2.314" transform="translate(236.214 -200.581)" fill="#244d90" fill-rule="evenodd"/>
      <path id="Fill-11" d="M44.657,302.279c.223-.51.571-.6,1.1-.7,2.269-.436,4.559-.439,6.85-.649a12.8,12.8,0,0,0,1.934-.31c.532-.133,1.034-.43,1.556-.554,1.04-.248,2.073.44,3.113.39a7.418,7.418,0,0,0,1.488-.476,3.648,3.648,0,0,1,1.217,0,14.8,14.8,0,0,0,2.466-.074,18.719,18.719,0,0,0,2.985-.547,4.87,4.87,0,0,0,2.1-.858,34.822,34.822,0,0,1,2.8,5.252c.768,1.779,1.789,3.462,2.726,5.158A69.508,69.508,0,0,1,79.554,319.8c-.712-.327-1.227-.66-1.762.079-.5.7-1.1.469-1.918.6-1.309.211-1.451,1.66-1.737,2.743l-1.27-1.581c-.34.378-.886.575-1.163,1.01-.177.279-.077.537-.183.8-.1.247-.347.347-.535.521-1.3-1.657-2.513,1.461-2.67,2.528l-.487-1.24a5.658,5.658,0,0,0-.725.755c-.112.182-.107.506-.227.657-.179.225-.3.126-.553.188-.413.1-.334.077-.573.4a33.252,33.252,0,0,0-2.406,2.739,21.886,21.886,0,0,0-2.264,4.083,11.862,11.862,0,0,1-.808,2.365c-.226.4-.616.75-.82,1.144-.254.49.193.693.143,1.131s-.783.872-1.147,1.009a5.81,5.81,0,0,1-1.856.165,8.217,8.217,0,0,1-2.455-.23c-.658-.2-.607-.533-.787-1.113a17.672,17.672,0,0,0-.886-2c-.444-.974-.658-1.623.669-1.915-.762-.127-2.007-.352-1.764-1.373.116-.49.558-.82.49-1.361s-.494-.738-.9-1.024a4.871,4.871,0,0,1-1.6-2.431,1.985,1.985,0,0,1-.034-1.356,8.6,8.6,0,0,0,.459-2.224l-1.053.112a3.691,3.691,0,0,1,.231-.845c.047-.093.29-.166.277-.3-.024-.228-.333-.223-.468-.383a5.857,5.857,0,0,1-.595-1.871,6.161,6.161,0,0,0-.468-1.474c-.48-.792-1.073.325-.954-.8.061-.57.1-1.414.815-1.5.845-.1,1.089.235,1.009-.779-.055-.717.138-2.256-.631-2.641a4.229,4.229,0,0,0-1.378-.2c-.49-.041-.875.218-1.325.2-.755-.026-.712-1.1-.8-1.65a29.351,29.351,0,0,1-.339-7.367,10.7,10.7,0,0,1,.553-3.1" transform="translate(178.577 -152.875)" fill="#244d90" fill-rule="evenodd"/>
      <path id="Fill-15" d="M168.791,87.233c.05-1.776.05-1.776-.936-2.449-.261,1.13.387,1.7.936,2.449m-17.9,4.532c-.213-.423-1.089-.3-1.46-.294a11.521,11.521,0,0,1,.959,1.895c.2-.386.709-1.188.5-1.6m2.3,12.578c-.385-.3-.3-.29-.479-.658-.142-.285-.108-.435-.413-.625-.618-.383-.713-.381-.872-1.2a10.848,10.848,0,0,0-.394-2.386c-.224-.472-.963-.516-.976-1.109-.024-1.152,2.059-1.739,1.662-2.9-.119-.346-.494-.454-.654-.751-.1-.182-.031-.419-.063-.613-.071-.434-.191-.528-.592-.642a.762.762,0,0,1-.022.507c-.263.509-1.311-.1-1.549-.452-.493-.725-.038-1.928.124-2.684a8.974,8.974,0,0,0,.105-2.841l-1.341,1.471c-.243-.742-.286-1.141-.966-1.6a3.826,3.826,0,0,1-1.281-1.353c-.154-.243-.258-.512-.563-.6s-.79.239-1.04.114c-.156-.077-.323-.881-.376-1.025q-.251-.683-.5-1.367a39.393,39.393,0,0,1,3.164-7.166,20.707,20.707,0,0,1,5.116-5.064c.954-.712,1.921-1.438,2.924-2.083a22.336,22.336,0,0,1,3.168-1.367,10.227,10.227,0,0,1,3.509-1.048c.608-.031,1.194.111,1.8.031.673-.089,1.32-.317,1.989-.43,0,3.5,1.275,7.045,2.465,10.3.542,1.48,1.319,2.847,1.888,4.316s1.136,2.953,1.759,4.412a78.875,78.875,0,0,0,4.109,8.967c.147.251.313.429.226.651-.025.064-.235.191-.29.247a2.687,2.687,0,0,0-.419.583,12.262,12.262,0,0,0-.6,1.572,27.93,27.93,0,0,1-1.913,3.489,14.846,14.846,0,0,1-2.762,3.41c-.5.476-1.245.915-1.546,1.546a12.5,12.5,0,0,0-.413,1.593q-.088-.62-.175-1.241c-.439.931-1.569,1.017-2.387,1.481a31.4,31.4,0,0,1-3.041,1.787,14.91,14.91,0,0,1-3.472,1.06,9.081,9.081,0,0,1-1.827.143,4.9,4.9,0,0,1-1.626-.548c1.761-1.518,1.12-4.152.116-5.9l-.927,2.04c-.2-.484-.9-.94-.59-1.508.187-.344.431-.255.485-.653a1.829,1.829,0,0,0-.309-.974,4.619,4.619,0,0,0-.236,1.073" transform="translate(34.769 -33.869)" fill="#244d90" fill-rule="evenodd"/>
      <path id="Fill-19" d="M117.687,151.062c.4-.874,2.026-1.076,2.845-1.244a15.627,15.627,0,0,0,3.862-1.713,12.546,12.546,0,0,0,3.091-2.086,3.874,3.874,0,0,1,1.347-.757,3.742,3.742,0,0,0,1.253-1.016,17.027,17.027,0,0,0,2.413-2.561,22.778,22.778,0,0,1,2.189-2.644c.87-1.1,1.488-2.368,2.245-3.54,1.357,1.462,1.724,3.742,2.547,5.516,1.025,2.21,2.006,4.442,2.969,6.68,1.726,4.016,3.4,8.056,4.906,12.161.055.151.351.653.3.815s-.432.332-.553.461a8.034,8.034,0,0,0-.773,1.135,15.2,15.2,0,0,1-1.579,1.976,19.526,19.526,0,0,1-4.477,3.636c-.721.41-1.748,1.223-2.573,1.153a8.746,8.746,0,0,0-2.935.078,11.7,11.7,0,0,1-3.018.41,3.01,3.01,0,0,0-1.252.1c-.286.118-.49.445-.813.459-.406.018-.649-.364-1.023-.5a2.569,2.569,0,0,0-1.023-.122c-.5.025-1.681.479-2.085.09-.436-.42-.27-1.635-1.087-1.795-.607-.119-1.835.991-2.331,1.3.214-.645.95-1.906.55-2.583a.618.618,0,0,0-.76-.276c-.4.082-.437.37-.758.55-1.739.977-1.584-3.668-1.526-4.379l1.326-.076c0,.407-.128,1.32.145,1.486a4.333,4.333,0,0,0,1.332,0c-.6.575-.887,1.066.025,1.557a.979.979,0,0,0,1.456-.8c.069-.8-1.18-.923-.95-1.713.307-1.061,1.242.736,1.412,1.049a2.6,2.6,0,0,0-.524-2.491,2.254,2.254,0,0,0-2.6-.642c-.1-.436-.323-.736-.442-1.134-.143-.475.075-.362.284-.774.341-.671-.341-.9-.47-1.481a1.276,1.276,0,0,1,.232-.934c.187-.32.549-.541.013-.716-.4-.13-.868.251-1.243-.092-.407-.372-.257-1.149-.478-1.613-.333-.7-.7-.267-1.243-.071-.405.147-.527.134-.576-.314a.68.68,0,0,1,.177-.605c.28-.258.667-.074.983-.16.429-.117.45-.388.614-.776-.748-.066-.759.172-1.437.458a2.264,2.264,0,0,1-1.673-.005,4.82,4.82,0,0,0,1.172-.4c.427-.3.33-.645.514-1.051" transform="translate(75.407 -69.263)" fill="#244d90" fill-rule="evenodd"/>
      <path id="Fill-21" d="M232.8,107.289c-.74-1.367-1.409-2.767-2.075-4.171-.4-.853-1.277-2.032-.241-2.735.7-.474,1.976-1.14,2.859-.782.749.3,1.161,2.077,2.193.914.188.536.827.449,1.211.739.285.216.259.434.432.711a6.175,6.175,0,0,0,.7.733,5.806,5.806,0,0,1,.669-1.038,3.831,3.831,0,0,1,.31,1.035c.074.23.14.389.381.479.552.206,1.094-.47,1.373-.842a1.95,1.95,0,0,0,.146,1.765c.309.393.81.47,1.1.881.325.461.346.81.929,1a3.444,3.444,0,0,0,.624.134c.128,0,.191-.224.245-.223a2.393,2.393,0,0,1,.643.3c-.363.457-.221.648.171.946.475.361.449.4.682.951a1.212,1.212,0,0,0,.5.647c.261.146.609.022.826.173.439.307.39,1.1.736,1.489.467.522,1.056.884,1.487,1.468a13.448,13.448,0,0,1,1.116,1.887c.646,1.262,1.509,2.438,1.6,3.872a5.288,5.288,0,0,0,.258,1.924c.275.554.869.778,1.1,1.422a8.849,8.849,0,0,1,.383,1.8c.083.692-.35,1.216-.048,1.888a4.784,4.784,0,0,1,.4,1.806c.052.655.569,1.1.251,1.66a4.162,4.162,0,0,0-.712,1.6c-.095.71.019.968.635,1.267a7.8,7.8,0,0,0-.986,1.837,5.387,5.387,0,0,1-.889,1.852c-.861,1.131-1.949,1.728-1.93,3.3l-11.723-3.922c1.507-.284.737-2.926.639-3.913-.18-1.808-.375-3.626-.636-5.425-.225-1.548-.665-3.049-.9-4.6a22.79,22.79,0,0,0-.453-2.392c-.183-.683-.568-1.325-.722-2a23.746,23.746,0,0,0-1.2-4.392c-.607-1.393-1.357-2.717-2.079-4.052" transform="translate(-86.323 -50.796)" fill="#244d90" fill-rule="evenodd"/>
      <path id="Fill-23" d="M43.678,368.717a1.778,1.778,0,0,0-.954-.212,14.581,14.581,0,0,1-2.625-.569,30.328,30.328,0,0,0-3.337-.692,26.574,26.574,0,0,1-3.178-.452,11.2,11.2,0,0,0-2.961-.646c-1.2-.047-1.9-.6-2.875.395-.876-1.222-2.142-1.215-3.538-1.408-.5-.07-1.083,0-1.195-.6a3.188,3.188,0,0,1,.58-1.745,44.7,44.7,0,0,1,4.075-7.068,22.9,22.9,0,0,1,6.2-5.726A34.21,34.21,0,0,1,38,348.361c1.473-.579,2.914-1.236,4.367-1.861.756.809.818,1.788,1.2,2.814.353.957.959,1.8,1.28,2.769.644,1.942,1.194,3.866,2,5.756,1.7,4,3.352,7.977,4.9,12.038-2.433-.378-4.8-.616-7.261-.769-.482-.03-.45-.149-.8-.392" transform="translate(216.624 -177.497)" fill="#244d90" fill-rule="evenodd"/>
      <path id="Fill-25" d="M336.145,48.689a2.732,2.732,0,0,0-1.964.852,53.261,53.261,0,0,0-6.523-7.515,95.323,95.323,0,0,0-7.14-6.532A93.468,93.468,0,0,0,304,25.167c1.842-2.122,3.654-4.275,5.509-6.384a48.1,48.1,0,0,1,5.8-5.283,46.83,46.83,0,0,1,.433,4.975c-.014,1.664-.242,3.321-.265,4.985a15.436,15.436,0,0,0,.372,4.106c.268,1.016.874,2.5,1.984,2.825a6.527,6.527,0,0,0,5.213-1.371,21.6,21.6,0,0,0,2.266-3.355,1.583,1.583,0,0,1,1.981-.755,29.59,29.59,0,0,1,3.88,1.858c1.419.71,2.833,1.431,4.254,2.14-.1.07-.675.366-.7.5-.008.041.323.726.333.861a4.145,4.145,0,0,1-.379,1.535,4.689,4.689,0,0,0-.285,1.627,8.37,8.37,0,0,0,.466,1.538c.123.571-.3.773-.515,1.27a2.736,2.736,0,0,0-.136,1.6,7.882,7.882,0,0,1,.343,1.338c0,.239-.206.505-.134.751s.361.383.529.546c-.766.5-.909.43-.605,1.252a3.426,3.426,0,0,1,.044,1.782c-.053.33-.393,1.209-.163,1.542.21.305.9.067,1.219.055-.118.615-.284.551-.572,1.061a2.106,2.106,0,0,0-.15,1.134c.051.959.64,1.065,1.426,1.392" transform="translate(-204.644 -6.682)" fill="#244d90" fill-rule="evenodd"/>
      <path id="Fill-27" d="M86.207,280.974a14.153,14.153,0,0,1-3.091.6,7.746,7.746,0,0,0-2.749.482c-.316.145-.661.537-1.006.531-.412-.007-.283-.288-.572-.47s-.48.021-.75.095a5.235,5.235,0,0,1-1.224.119c-1.154.038-2.307.062-3.461.091-1.039.026-2.046.2-3.079.2-1.091.007-2.182,0-3.274,0a17.658,17.658,0,0,1,2.922-4.706c.68-.67,1.25-1.419,1.894-2.122a24.234,24.234,0,0,1,2.134-1.809,14.084,14.084,0,0,1,2.219-1.818,6.285,6.285,0,0,1,1.156-.6,3.927,3.927,0,0,0,.943-.234c.351-.207.665-.637,1-.882a10.99,10.99,0,0,1,1.117-.694c.766-.426,1.564-.793,2.307-1.26,2.287,4.228,4.341,8.5,6.219,12.927a2.783,2.783,0,0,0-2.71-.453" transform="translate(158.012 -137.486)" fill="#244d90" fill-rule="evenodd"/>
      <path id="Fill-29" d="M205.044,18.169a3.917,3.917,0,0,0-.6.808c-.164.348-.068.683-.168,1.015-.123.41-.6.592-.309,1.106.2.35.663.433.8.843.242.736-.6,1.412-.932,1.991a1.59,1.59,0,0,0-.258,1.11c.048.245.261.426.318.642.1.379,0-.006-.044.38s-.209.818-.239,1.238a11.976,11.976,0,0,1,.04,1.328,9.357,9.357,0,0,1-1.386,2.99c-.466.676-.851.916-1.617.613-4.091-1.616-4.917-6.047-5.746-9.832a32.5,32.5,0,0,1-.795-6.7c-.026-2.4-.212-4.8-.036-7.2.677.194,1.524.264,1.993.846.251.311.256.7.5.985A9.346,9.346,0,0,0,198,11.367l6.432,4.811.9.672c.308.23.392.193.343.528-.039.263-.466.6-.632.792" transform="translate(-20.614 -4.117)" fill="#244d90" fill-rule="evenodd"/>
      <path id="Fill-31" d="M261.466,44.365c.385.5,1.115.616,1.584,1.079a4.246,4.246,0,0,1,.932,1.6,6.251,6.251,0,0,1,.62,2.182,17.33,17.33,0,0,0,.385,2.266c.079.518.052.677-.472.829a6.493,6.493,0,0,1-2.356.116c-3.573-.365-6.392-3.133-8.561-5.722a105.062,105.062,0,0,1-6.6-9.5c1.024-.578,2.132-1.009,3.109-1.667.919-.62,1.74-1.4,2.644-2.051.124.377.124.806.279,1.171.176.415.422.483.8.719a5.507,5.507,0,0,1,1.663,1.669,15.312,15.312,0,0,0,1.078,1.922,10.823,10.823,0,0,0,1.614,1.108,15.578,15.578,0,0,1,1.979,2.391c.494.6.838,1.283,1.3,1.886" transform="translate(-105.759 -16.941)" fill="#244d90" fill-rule="evenodd"/>
      <path id="Fill-33" d="M121.056,100.011c-.138.376-.426.9-.216,1.3.383.727.763-.346,1.14-.52a15.96,15.96,0,0,1-.319,1.857,2.933,2.933,0,0,0-.176,1.261c.082.462.461.722.466,1.19a8.629,8.629,0,0,1-.291,1.314c.718-.085.873-.178,1.309.365a3.043,3.043,0,0,0-.763.209c-.207.169-.1.088-.146.4a10.671,10.671,0,0,0,.031,1.569c.016.523.315.427.542.785a1.753,1.753,0,0,1,.078,1.009c-.055.382-.372.8-.326,1.184.056.464.5.491.713.838.285.456.034.79-.094,1.258a14.374,14.374,0,0,0-.232,1.966c-3.135-6.315-5.59-12.95-9.1-19.069q-.129-.223-.255-.448l.311-.184c.047-.307.034-.688.061-1.029.06-.739.264-1.455.358-2.189.1-.82-.078-1.608,0-2.42.027-.281.093-.559.1-.843a8.094,8.094,0,0,0-.257-1.12c-.034-.387.193-.9.194-1.318a6.575,6.575,0,0,0-.081-.974c-.124-.864-.383-1.7-.514-2.564-.268-1.772-.285-3.574-.588-5.344.473.7,1.007,1.35,1.476,2.05s.769,1.467,1.192,2.186a11.416,11.416,0,0,0,1.257,1.7c.386.442.381.414.226.963a1.9,1.9,0,0,0-.119.761c.164,1.074,1.769.711,1.536,1.881-.118.591-.563,1.134-.322,1.766.216.567.865.856,1.112,1.418.271.62-.092,1.046-.115,1.648a1.682,1.682,0,0,0,.572,1.29c.492.492.469.814.6,1.511a5.452,5.452,0,0,0,.648,1.75c.312.536.7.7.533,1.3-.119.436-.379.863-.537,1.29" transform="translate(101.297 -40.024)" fill="#244d90" fill-rule="evenodd"/>
      <path id="Fill-39" d="M107.754,123.018a20.573,20.573,0,0,1-2.5,5.835,23.575,23.575,0,0,1-.552-3.119c-.052-1.057-.087-2.106-.2-3.159-.218-1.972-.584-3.922-.987-5.861-.845-4.07-1.647-8.147-2.508-12.213q1.917,3.044,3.819,6.1.924,1.491,1.844,2.984a8.847,8.847,0,0,1,1.557,2.8,20.623,20.623,0,0,1,.016,3.486,14.3,14.3,0,0,1-.483,3.152" transform="translate(122.064 -53.361)" fill="#244d90" fill-rule="evenodd"/>
      <path id="Fill-41" d="M148.25,78.626c-.022.279-.218.587-.272.874a6.358,6.358,0,0,0-.07,1.035c-.02.833-.055,1.666-.084,2.5-1.683-2.316-2.584-5.071-4.1-7.488a23.066,23.066,0,0,1-1.863-3.2c-.529-1.254-1.017-2.5-1.628-3.722-.333-.666-.676-1.327-1.006-2-.158-.32-.325-.47-.155-.782a.867.867,0,0,1,.446-.336c.436-.093.69.422,1.036.6a11.342,11.342,0,0,0,1.562.325c1.141.384,2.235,1.1,3.353,1.562.356.149.612.207.584.634-.025.379-.416.3-.013.632.218.178.5.1.753.071a3.542,3.542,0,0,0,.231,2.044,3.311,3.311,0,0,1,.226,1.648,6.908,6.908,0,0,0,.583,2.09c.249.611.618,1.089.258,1.726-.2.351-.627.608-.378,1.01.223.36.582.225.537.777" transform="translate(63.608 -33.356)" fill="#244d90" fill-rule="evenodd"/>
      <path id="Fill-43" d="M124.92,310.612c1.212-.719.065-1.451,0-2.123Zm1.854-4.109c.183.009.808.075.921.265a6.794,6.794,0,0,1-.049.984c0,.6.064,1.2.031,1.794s-.341,1.177-.367,1.765c-.024.553.325.848.49,1.34.217.649-.072,2.434-.795,2.615a6.482,6.482,0,0,0-.155-1.387c-.346-.164-.514.731-.612.975a8.6,8.6,0,0,1-1.69-3.518q-.776-2.194-1.548-4.388c.634-.063,1.27-.1,1.9-.185a10.751,10.751,0,0,1,1.872-.261Z" transform="translate(91.784 -156.979)" fill="#244d90" fill-rule="evenodd"/>
      <path id="Fill-49" d="M91.549,391.6c.537.227.383.875.366,1.446a2.119,2.119,0,0,1-.969,1.861c-.254-.674-1.162-2.151-.9-2.855a1.145,1.145,0,0,1,1.5-.451" transform="translate(143.779 -200.581)" fill="#244d90" fill-rule="evenodd"/>
      <path id="Fill-106" d="M304.974,55.423c-.354-.323-.9-.533-.968-1.059a5.745,5.745,0,0,1,.58-1.863q.195,1.461.388,2.922" transform="translate(-173.474 -26.687)" fill="#244d90" fill-rule="evenodd"/>
      <path id="Fill-9" d="M92.929,228.888c.921,0-.075-1.919-.222-2.358-.29.5-.985,2.364.222,2.358m-7.671-24.221c-.362-.217-1.048-.469-1.245-.879-.229-.475.241-.47.653-.5a6.785,6.785,0,0,1,1.6.027c.489.1.7.207,1.155-.081.26-.163.505-.569.8-.628s.668.266.935.39c.935.432,1.927.152,2.919.2a2.012,2.012,0,0,0,1.033-.054c.444-.206.546-.481,1.091-.445a6.8,6.8,0,0,0,2.469.088c.562-.15,1.336-.743,1.941-.56.562.17.856,1.054,1.3,1.429a3.914,3.914,0,0,1,.821-2.2,18.065,18.065,0,0,1,2.5-1.412,22.615,22.615,0,0,0,4.3-4.54,19.664,19.664,0,0,1,1.993,3.843c.534,1.355,1.053,2.716,1.588,4.07,1.076,2.728,2.224,5.429,3.4,8.114,2.394,5.452,5.081,10.755,7.436,16.228a10.507,10.507,0,0,0-4.571,1.59,1.427,1.427,0,0,0-.612.591c-.113.151-.266.522-.47.572-.12.03-.5-.183-.691-.155a1.5,1.5,0,0,0-.7.395c-1.356,1.068-2.709,2.193-4,3.347a6.712,6.712,0,0,0-1.393,1.712,6.225,6.225,0,0,1-1.592,1.78c-1.087.885-1.714,2.44-2.473,3.625a16.8,16.8,0,0,0-1.195,2.11,5.747,5.747,0,0,1-.956,1.992c-1.16,1.1-2.976.47-4.383.652-.553.072-.687.228-1.185,0q-.009-.294-.224-.21a1.194,1.194,0,0,0-.448.223c-.367.2-.715.44-1.07.658l-.621-1.532c.233,0,1.074.1,1.2-.254.11-.295-.352-.377-.525-.559-.193-.2-.306-.861-.682-.848-.308.011-.291.281-.286.545-.663.014-.657-.564-.77-1.056-.076-.331-.183-.658-.269-.988-.057-.222-.43-1.133-.336-1.323.237-.476,1.756-.447.788-1.026-.309-.185-1.034-.126-1.273-.388-.191-.209-.208-1.066-.264-1.353.452.031,1,.3,1.272-.1.4-.582-.184-1.469-.479-1.955-.382.3-.621.629-1.056.282a3.762,3.762,0,0,1-1.067-1.605c.5-.015.415.085.671-.308a3.5,3.5,0,0,0,.26-.867c.148-.518.448-.912-.176-1.05-.39-.086-.488,0-.6.375a12.26,12.26,0,0,0-.153,1.85,3.193,3.193,0,0,1-1.009-2.647c.389.387.429.282.9-.019s.93-.612,1.394-.92c-.587-.533-1.519-.017-2.1-.454-.393-.3-.192-1.209-.219-1.62a12.989,12.989,0,0,1-.226-1.554c.032-.559.673-.8.333-1.316-.239-.359-.791-.3-.895-.842s.441-.864.847-1.1c-.6-.2-1.755-.4-1.212-1.207.257-.381.567-.414.562-.953a3,3,0,0,0-.428-1.151c-.225.515-.557,1.725-1.256,1.684-.583-.034-1.1-.558-.933-1.085.517-1.626,1.987-1.744,3.418-2.05-.267-.985-.972-.928-1.685-.428-.422.3-.686.545-1.223.24-.56-.317-.289-.436-.042-.892.5-.928-.194-1.461-.877-2a10.648,10.648,0,0,1-.92-1.04,4.366,4.366,0,0,0-1.336-.625,1.966,1.966,0,0,1,1.57-.321c.385.132.666.39,1.106.167.983-.5-.294-.625-.425-1.036-.074-.233.178-.708.083-1.039a3.576,3.576,0,0,0-.5-.919,2.387,2.387,0,0,1-.6-2.023,1.823,1.823,0,0,0-.682,1.454,13.653,13.653,0,0,1-.177,2.067c-.03-1-.951-1.673-1.106-2.639-.048-.3.2-1.039-.09-1.2-.224-.126-.682.2-.92.2a17.837,17.837,0,0,1,.5-2.769c.3-.868,1.093-1.2,1.755-1.769" transform="translate(117.173 -100.04)" fill="#244d90" fill-rule="evenodd"/>
    </g>
    <g id="Ink" transform="translate(0 0)">
      <path id="Fill-53" d="M146.347,146.784c1.221.255,2.4.65,3.628.884,1.459.277,2.919.531,4.388.744a3.566,3.566,0,0,1,2.528,1.193c1.206,1.536,2.421,4.183.759,5.814-.781.766-2.151.524-3.154.843a19.027,19.027,0,0,1-3.332.9,148.806,148.806,0,0,0-16.247,3.346,54.406,54.406,0,0,0-7.207,2.366,18.135,18.135,0,0,0-3.429,1.76,13.9,13.9,0,0,0-2.69,2.054,28.175,28.175,0,0,0,9.132.058c1.467-.249,2.943-.179,4.422-.291s2.965-.217,4.447-.348c1.437-.127,2.864-.286,4.291-.5a5.779,5.779,0,0,1,1.6-.088,2.074,2.074,0,0,0,.791.07c.238-.054.493-.241.732-.32a12.911,12.911,0,0,1,3.4-.36,9.653,9.653,0,0,1,2.61-.116c1.5.33,2.18,2.433,2.523,3.723a4.928,4.928,0,0,1-.219,2.625c-.3.921-.856.9-1.6,1.322a27.466,27.466,0,0,1-3.135,1.717c-.958.391-1.938.73-2.887,1.146a59.816,59.816,0,0,0-6.318,2.862c-1.066.626-2.076,1.252-3.194,1.794a21.659,21.659,0,0,0-2.9,1.684,22.184,22.184,0,0,0-4.9,4.726,4.926,4.926,0,0,0,1.791-.135c.759-.268,1.469-.662,2.238-.9,1.465-.463,2.9-.9,4.35-1.426s2.93-1.05,4.407-1.487c.757-.224,1.522-.323,2.29-.488a11.863,11.863,0,0,0,1.919-.706,91.491,91.491,0,0,1,9.541-2.718c3.1-.867,6.156-1.768,9.316-2.378,1.471-.285,2.946-.553,4.431-.757a10.064,10.064,0,0,1,4.125.374,27.713,27.713,0,0,1,4.232,1.377,11.621,11.621,0,0,1,3.292,1.6,6.5,6.5,0,0,0,1.377,1.248,9.65,9.65,0,0,0,1.439.61c1.108.4,2.158.93,3.26,1.346a7.485,7.485,0,0,0,2.155.516,3.48,3.48,0,0,1,1.594.528,22.37,22.37,0,0,0,3.137,1.043c1.045.33,2.234,1.2,3.366.8,1.1-.386,1.8-1.8,2.46-2.682a27.276,27.276,0,0,0,4.174-7.334c1.019-2.9,1.991-5.815,2.977-8.725q.769-2.27,1.551-4.536c.29-.838.893-1.74.236-2.514-.762-.9-1.033-2.312-1.82-3.318s-1.665-1.917-2.494-2.877c-.484-.56-.958-1.132-1.389-1.735-.354-.494-.615-1.1-1.008-1.557-.357-.416-.881-.662-1.272-1.046-.425-.418-.8-.914-1.194-1.366-1.024-1.186-2-2.444-3.089-3.568-.9-.928-1.931-1.754-2.856-2.669-2.005-1.98-4.135-3.828-6.214-5.728-2.023-1.851-4.093-3.642-6.063-5.537a54.435,54.435,0,0,0-6.146-4.71,75.4,75.4,0,0,0-6.9-4.728,20.161,20.161,0,0,0-7.312-2.1,9.95,9.95,0,0,0,.784,1.5c.506.677,1.168,1.281,1.74,1.9q1.745,1.9,3.51,3.778c2.29,2.44,4.689,4.78,6.912,7.282a16.593,16.593,0,0,1,3.88,6.619,4.81,4.81,0,0,1-.251,4.086c-.634.959-1.676.885-2.727.791-2.709-.242-5.395-1.164-8.075-1.643-2.98-.532-6.027-.663-9.035-.983-1.51-.161-3-.576-4.511-.69-.681-.051-1.353.087-2.033.031s-1.355-.221-2.022-.345a12.547,12.547,0,0,0-4.1-.219,19.15,19.15,0,0,1-4.171-.075,47.814,47.814,0,0,0-9,.4,64.781,64.781,0,0,0-8.425,1.327c2.9.739,5.8,1.5,8.72,2.169,2.98.687,6.058,1.149,8.983,2.036,1.273.386,2.582.441,3.878.713Zm229.795,61.508c-.318-1.155-.64-2.4-1.044-3.549a2.386,2.386,0,0,0-.387-.671,6.39,6.39,0,0,1,.652,1.523c.271.9.519,1.8.779,2.7Zm.636,1.181q-.1-.218-.219-.428.12.21.219.428Zm.233.572c-.051-.142-.107-.282-.166-.421.059.138.116.279.166.421Zm-.806-1.533a4.6,4.6,0,0,1,.3.44,4.474,4.474,0,0,0-.3-.441ZM198.51,197.736a14.632,14.632,0,0,1,3.232,2.226c2.138,2.3,4.441,4.482,6.5,6.856.827.953,1.244,2.134,2.168,3.021a28.651,28.651,0,0,0,3.519,2.623c2.639,1.844,5.251,3.838,8.036,5.456.624.363,1.256.739,1.9,1.064a7.055,7.055,0,0,1,1.329.63c.354.288.5.714.881.994.284.207.625.375.922.563q3.663,2.319,7.373,4.56c2.418,1.461,4.835,2.941,7.2,4.484,1.257.82,2.446,1.742,3.709,2.551,1.029.659,2.1,1.245,3.113,1.935a26.122,26.122,0,0,0,3.24,2.054c1.133.554,2.311,1.013,3.439,1.578.665.332,1.266.736,1.9,1.119a5.247,5.247,0,0,0,1.212.367c1.313.45,2.49,1.228,3.83,1.643,5.565,1.724,10.945-.736,15.8-3.352,2.445-1.319,4.671-3.007,7.013-4.493a33,33,0,0,0,3.239-1.884c.471-.384.653-.788,1.2-1.091a10.138,10.138,0,0,0,1.4-.9,64.114,64.114,0,0,0,6.277-5.5c1.082-1.093,2.163-2.189,3.219-3.307.826-.876,1.47-1.941,2.234-2.881,1.836-2.259,3.617-4.552,5.386-6.863.859-1.121,1.709-2.251,2.571-3.371a6.737,6.737,0,0,0,1.638-2.452,3.671,3.671,0,0,0-.769-2.474,20.412,20.412,0,0,1-1.7-3.413c-.652-1.82-1.647-5.305.344-6.61.732,1.216,1.658,2.3,2.447,3.474s1.137,2.683,2.09,3.739c1,1.109,2.336,1.913,3.386,2.993s2,2.237,3.02,3.346c1.062,1.16,2.189,2.257,3.307,3.362a31.65,31.65,0,0,0,3.435,2.759,42.015,42.015,0,0,0,3.846,2.534,11.225,11.225,0,0,0,1.8.983,14.34,14.34,0,0,1,1.906.72c2.629,1.36,5.279,2.665,7.948,3.944a12.535,12.535,0,0,0,2.241,1.011c.3.073.464.007.79.111a10.508,10.508,0,0,1,1.012.447c1.37.6,2.768,1.071,4.187,1.546,2.951.989,5.949,1.891,8.868,2.971,2.733,1.011,5.391,2.1,8.207,2.888a50.061,50.061,0,0,0,8.561,1.181,13.822,13.822,0,0,1,2.407.211,4.128,4.128,0,0,0,1.75.276,15.856,15.856,0,0,1,3.733.335c-1.927-3.794-2.928-8.114-4.323-12.132-.369-1.063-.817-2.055-1.124-3.135a13.565,13.565,0,0,0-1.15-2.775,21.416,21.416,0,0,1-1.154-3.474c.3.907.468,1.872.756,2.781-.4-.764-.831-1.512-1.213-2.286a4.108,4.108,0,0,1-.4-2.159c-1.036.119-1.075-.946-1.234-1.7-.243-1.155-.5-2.306-.747-3.459a5.4,5.4,0,0,1-.149-.993,9.232,9.232,0,0,0-.327-1c-.9-2.56-1.9-5.077-2.553-7.716-.723-2.911-1.357-5.848-2.007-8.776a39.235,39.235,0,0,1-.955-4.725c-.072-.761-.46-3.214.618-3.556.832-.264,1.724,2.273,1.941,2.831.528,1.358,1.027,2.725,1.53,4.092.449,1.222.8,2.457,1.3,3.662s.684,2.486,1.133,3.721c.264.726.687,1.26.978,1.954.212.507.289,1.057.463,1.577.36,1.077.918,2.129,1.324,3.2.519,1.369,1.158,2.687,1.728,4.035.521,1.233.818,2.533,1.307,3.769.47,1.187,1.2,2.248,1.668,3.446.514,1.316.982,2.651,1.49,3.969,1.049,2.721,2.112,5.421,2.934,8.222.206.7.556,1.389.727,2.013a15.407,15.407,0,0,0,.654,1.577,17.839,17.839,0,0,1,.767,3.209h0l-.061-.345c.42.017.87.109,1.163-.267.333-.427.24-1.256.3-1.769.493.065.3.287.247.734q-.041.345-.082.69l-.207,1.726c-.157-.093-.488-.629-.623-.644-.206-.023-.431.536-.527.813a2.244,2.244,0,0,0,.131.307,5.535,5.535,0,0,1,.355.711,10.833,10.833,0,0,0,.589,1.532,3.874,3.874,0,0,0,.451.675c.131.154.56.409.632.571.18.406-.094,1.418-.069,1.891a4.891,4.891,0,0,0,.4,1.833c.113.235.318.378.423.581a1.768,1.768,0,0,1,.19.805,15.021,15.021,0,0,0,1.086,3.795c.513,1.385.914,2.808,1.38,4.208.441,1.325,1.005,2.6,1.472,3.915.543,1.531,1.027,3.083,1.536,4.625.38,1.155.963,2.181,1.371,3.317a20.121,20.121,0,0,1,1.212,3.417,19.834,19.834,0,0,0,1.438,3.929c.424,1.046,1.3,2.158,1.478,3.272a8.759,8.759,0,0,0,.125,1.531c.15.451.436.835.626,1.267.262.594.067,1.144.247,1.751a5.414,5.414,0,0,0,.8,1.35c.508.8.336,1.719.858,2.549a14.7,14.7,0,0,1,1.392,3.814c.194.654.338,1.326.512,1.985a5.1,5.1,0,0,0,.243,1.026c.174.3.472.186.622.36a3.074,3.074,0,0,1,.216.838,17.12,17.12,0,0,0,.694,1.813c.54,1.276,1.161,2.519,1.629,3.824q.733,2.049,1.47,4.1c.233.65.459,1.3.711,1.944a3.87,3.87,0,0,0,.919,1.306c.407.475.576,1.14.957,1.643a3.7,3.7,0,0,1,.757,1.406,22.437,22.437,0,0,0,.974,3.271c1.166,2.669,2.619,5.209,3.79,7.881,1.226,2.8,2.39,5.631,3.452,8.5,1,2.692,1.634,5.482,2.653,8.164,1.009,2.655,1.876,5.35,2.87,8.013,1.032,2.765,2.07,5.526,2.995,8.329a28.3,28.3,0,0,1,.773,3.034c-.067-.459-.132-.908-.209-1.329.984,1.647,1.888,3.438,1.456,5.411a5.229,5.229,0,0,1-.637-1.266,4,4,0,0,0,.228.67,10.567,10.567,0,0,1,.722,1.682c.415,1.437.835,2.873,1.243,4.312.2.693.38,1.393.611,2.076.205.607.651,1.134.839,1.727.211.663.138,1.475.3,2.167a6.416,6.416,0,0,0,.663,1.742,12.46,12.46,0,0,1,.78,1.239,5.489,5.489,0,0,1,.156,1.669c.08.718.337,1.4.435,2.116.095.688-.227,1.116-.349,1.773a3.263,3.263,0,0,0,.336,1.769c.175.534.276,1.1.4,1.649.054.234.092.967.258,1.123a3.751,3.751,0,0,0,.992.162,11.5,11.5,0,0,0,1.979.242,40.173,40.173,0,0,0,4.234-.354,41.545,41.545,0,0,0,8.363-1.623,47.715,47.715,0,0,0,7.531-3.308,32.961,32.961,0,0,0,6.534-4.844c1.089-.988,2.125-2.033,3.162-3.075.5-.5,1-1,1.5-1.5.4-.395.924-.771.964-1.382a5.578,5.578,0,0,0-.693-2.1q-.325-.832-.639-1.667c-.514-1.36-1.02-2.724-1.525-4.087q-1.573-4.234-3.14-8.47c-1.056-2.839-2.141-5.617-3.417-8.363-1.222-2.631-2.334-5.282-3.349-8-.959-2.565-2.1-5.038-3.188-7.549-.583-1.349-1.136-2.713-1.583-4.113a20.722,20.722,0,0,0-1.221-3.38,11.794,11.794,0,0,1-.887-2.169,4.618,4.618,0,0,0-.73-1.77,12.031,12.031,0,0,1-1.88-3.781,61.24,61.24,0,0,0-3.236-7.86c-1.289-2.543-2.717-4.983-3.892-7.584s-2.791-4.968-3.9-7.625c-2.282-5.481-5.429-10.528-7.743-15.994-2.278-5.385-4.992-10.558-7.319-15.921-1.216-2.8-2.389-5.623-3.5-8.47-.528-1.359-1.051-2.72-1.6-4.071-.494-1.22-1.348-2.154-1.7-3.414a16.925,16.925,0,0,0-1.547-3.443A39.616,39.616,0,0,1,417.724,227c-1.089-2.759-2.227-5.5-3.391-8.228-1.2-2.806-2.475-5.572-3.718-8.356-.469-1.053-.732-2.185-1.216-3.231-.241-.52-.729-.961-.944-1.459-.1-.231-.076-.552-.159-.8a8.677,8.677,0,0,0-.473-.977c-1.247-2.552-2.628-5.006-3.765-7.612-1.162-2.664-2.35-5.325-3.372-8.047-1.01-2.689-2.287-5.225-3.155-7.972-.414-1.31-.826-2.625-1.143-3.962a10.58,10.58,0,0,1-.532-4.082c.162-.737,1.019-2.238,1.886-1.559a7.985,7.985,0,0,1,1.715,2.744c.656,1.323,1.351,2.63,1.913,4a21.149,21.149,0,0,0,1.472,3.154c1.5,2.433,2.685,4.981,4.032,7.5a8.619,8.619,0,0,0,1.077,1.531c.4.474.288.7.453,1.3.294,1.076,1.188,1.944,1.642,2.961a37.718,37.718,0,0,0,1.881,3.915c.65,1.106,1.248,2.226,1.786,3.391,1.228,2.66,2.408,5.343,3.6,8.021.631,1.42,1.244,2.851,1.936,4.242.3.611.6,1.231.932,1.829.214.389.6.705.784,1.1.206.448-.02.826.156,1.263.2.507.425.713.868.417.988-.661,1.185-2.076,1.715-3.085a24.685,24.685,0,0,0,2.912-7.323,25.5,25.5,0,0,0,.146-4.527c-.009-1.339-.8-2.249-1.5-3.356-1.642-2.6-3.287-5.2-4.957-7.787-.735-1.137-1.376-2.332-2.128-3.455-.727-1.085-1.7-1.887-2.495-2.894-.445-.561-.771-1.177-1.247-1.717a12.017,12.017,0,0,1-1.109-1.44c-.623-.973-1.048-2.027-1.732-2.971-1.613-2.229-3.255-4.446-4.955-6.61a18.259,18.259,0,0,0-3.094-2.789c-1.1-.9-2.08-1.928-3.092-2.922a66.79,66.79,0,0,0-5.954-5.581c-2.218-1.7-4.511-3.331-6.86-4.85a17.28,17.28,0,0,1-3.524-2.326,5.688,5.688,0,0,0-1.274-1.1c-.472-.28-1.022-.354-1.482-.61a33.087,33.087,0,0,1-3.681-2.819l-3.534-2.706a9.911,9.911,0,0,1-1.791-1.317c-.2-.274-.178-.657-.408-.946-.52-.653-1.549-.714-2.278-1a24.971,24.971,0,0,0-4.3-1.114,27.43,27.43,0,0,1-3.779-1.243,34.859,34.859,0,0,0-8.42-1.787c1.292,3.809,2.758,7.564,3.746,11.469.4,1.583.467,3.43,1.134,4.922.24.537.882,1.048.561,1.655a4.286,4.286,0,0,1-1.333,1.217c-.885.575-1.977-.063-2.847-.411a22.522,22.522,0,0,0-4.458-1.609c-1.632-.279-3-1.825-4.7-1.8a2.894,2.894,0,0,0-1.814.789c-.546.454-1.164.818-1.693,1.3a13.377,13.377,0,0,1-3.988,2.534c-.51.2-.946.1-1.418.489-.352.292-.632.712-1.1.82a70.361,70.361,0,0,1,6.3,7.436,15.284,15.284,0,0,1,2.126,4.125c.24.722.462,1.274,0,1.973a1.2,1.2,0,0,1-1.138.631c-1.151-.177-2.173-1.731-2.811-2.583-.741-.989-1.555-1.9-2.326-2.868a36.727,36.727,0,0,0-5.02-5.749,17.1,17.1,0,0,0-1.853-1.449c-.525-.321-.9-.076-1.477-.178a15.049,15.049,0,0,1-4.065-1.676c-1.409-.713-2.819-1.426-4.24-2.117-.743-.362-1.837-1.128-2.71-.762-.976.409-1.528,1.937-2.063,2.755a5.014,5.014,0,0,1-1.82,1.915c-1.383.734-4.071,1.625-5.283.213-1.716-2-1.542-5.273-1.394-7.725a33.184,33.184,0,0,0,.16-4.524c-.1-1.325-.257-2.646-.388-3.969a48.69,48.69,0,0,0-6.764,6.46c-1.075,1.293-2.189,2.552-3.3,3.816a9.294,9.294,0,0,0-1.434,1.932,7.854,7.854,0,0,1-1.278,1.723,23.158,23.158,0,0,0-2.484,3.843q-1.123,1.861-2.215,3.741a63.371,63.371,0,0,0-3.833,7.488c-.564,1.362-1.331,2.6-1.907,3.954s-1.135,2.692-1.685,4.046c-.317.781-.7,1.57-.945,2.375-.172.56-.02,1.269-.225,1.789-.2.5-.67.936-.879,1.473s-.336,1.117-.552,1.659c-1.058,2.654-2.507,5.186-3.691,7.788-1.229,2.7-2.455,5.4-3.925,7.986a73.786,73.786,0,0,1-5.17,7.432c-.942,1.262-1.916,2.506-2.819,3.8a7.085,7.085,0,0,1-1.05,1.372,6.211,6.211,0,0,1-1.407.73,3.563,3.563,0,0,1-.51-1.938,11.96,11.96,0,0,1,.547-1.942c.4-1.222,1.435-2.315,1.174-3.671-.243-1.263-1.277-2.265-2.06-3.22q-1.552-1.893-3.116-3.776c-3.5-4.219-7.214-8.262-10.837-12.383-1.844-2.1-3.653-4.231-5.56-6.272-.855-.915-1.847-1.66-2.759-2.513-.747-.7-1.239-1.581-1.944-2.309-.522-.539-1.143-.932-1.674-1.476l-1.3-1.327q-1.426-1.459-2.841-2.927c-1.884-1.963-3.643-4.034-5.5-6.022-3.583-3.839-7.374-7.525-11.114-11.207-1.08,3.191-1.973,6.516-2.747,9.795a20.628,20.628,0,0,1-.555,2.422c-.281.763-.65,1.5-.946,2.255-.657,1.685-1.161,3.483-1.979,5.089-1.554,3.049-2.921,6.586-5.16,9.21a36.121,36.121,0,0,1-3.938,3.546l-4.2,3.629c1.258.947,2.507,1.9,3.836,2.745Zm115.8,20.257a1.151,1.151,0,0,1,.357-.511.811.811,0,0,0-.294.365,11.284,11.284,0,0,0-.559,1.489c.155-.451.309-.9.5-1.342Zm33.8,24.175c-.966,1.081-1.989,2.113-2.967,3.184-.9.987-1.626,2.069-2.436,3.13q-2.616,3.429-5.466,6.672c-1.824,2.085-3.794,4.05-5.535,6.206a43.138,43.138,0,0,0-4.36,6.9,19.162,19.162,0,0,1-2.109,3.193,6.533,6.533,0,0,0-1.135,1.416,11.855,11.855,0,0,0-.5,2c-1.357,5.793-2.745,11.581-4.053,17.385-.634,2.813-1.058,5.665-1.671,8.481-.621,2.852-1.55,5.622-2.137,8.483-1.188,5.795-2,11.667-3.277,17.442-1.243,5.624-3.4,10.97-4.574,16.617a5.263,5.263,0,0,0-.219,2.319,9.035,9.035,0,0,1,.281,1.944,5.218,5.218,0,0,0,.825,3.141,13.567,13.567,0,0,0,5.455,4.742,20.121,20.121,0,0,0,3.574,1.558c.613.145,1.208.049,1.815.139a7.7,7.7,0,0,1,1.692.753c2.268.932,5.163.653,7.57.654a18.477,18.477,0,0,0,7.766-1.285q.3-.137.593-.288.5-.076.175-.446c0-.268-.153-.575-.165-.859a5.992,5.992,0,0,1,.306-1.76q.538-2.053,1.01-4.123c1.3-5.723,1.913-11.534,2.711-17.339.411-2.994,1.01-5.961,1.526-8.939.495-2.859.791-5.728,1.166-8.6s.77-5.726,1.157-8.587c.211-1.567.665-3.106.864-4.667.151-1.182-.162-2.3.106-3.483.63-2.789.656-5.681,1.366-8.453.732-2.855,1.791-5.662,2.777-8.438q.765-2.157,1.528-4.314a3.367,3.367,0,0,1,1.52-2.17c.485-.225.965-.2,1.4-.537a16.085,16.085,0,0,0,1.471-1.454c1.025-1.031,2.043-2.07,3.071-3.1,4-4,7.88-8.193,12.3-11.735a55.071,55.071,0,0,1,6.231-4.844c2.437-1.436,4.84-2.929,7.278-4.364a26.985,26.985,0,0,1,3.731-1.831c1.145-.458.445-1.552.115-2.439-.511-1.371-.954-2.761-1.381-4.161-.323-1.057-.5-2.426-1.581-3-.708-.375-1.017.062-1.7.274a4.345,4.345,0,0,1-1.489.151c-1.133-.05-2.437-.558-3.554-.381a4.634,4.634,0,0,1-1.875.01,19.966,19.966,0,0,0-2.065-.175c-1.26-.094-2.556-.11-3.8-.329a51.661,51.661,0,0,1-8.1-2.022c-2.8-.98-5.463-2.341-8.144-3.594a16.576,16.576,0,0,1-.813,3.658,5.312,5.312,0,0,1-1.859,2.682c-1.955,1.086-2.978,2.957-4.427,4.578Zm-40.889,117.6c-.849-.462-1.01.186-1.514.882q-2.065,2.854-4.153,5.691-2.029,2.764-4.064,5.526c-1.27,1.727-2.672,3.374-3.838,5.174a46.324,46.324,0,0,0-3.067,5.869c-.782,1.7-1.917,3.466-1.1,5.358.762,1.756,2.93,2.5,4.508,3.333,1.993,1.055,3.565,1.8,5.82,1a111.613,111.613,0,0,0,12.561-5.558c3.726-1.874,6.545-4.642,9.633-7.362,1.622-1.428,3.3-2.743,4.819-4.289,1.577-1.609,3.08-3.291,4.667-4.889,2.471-2.488,5.062-4.689,4.636-8.541A56.693,56.693,0,0,1,329,364.215a32.539,32.539,0,0,1-7.843.667,22.708,22.708,0,0,1-3.276-.588c-1.079-.215-2.179.009-3.193-.521a10.046,10.046,0,0,0-2.48-1.27A7.9,7.9,0,0,1,309.4,361.3a24.824,24.824,0,0,0-2.182-1.531Zm74.4-102.219a.2.2,0,0,0-.069.027.365.365,0,0,1,.069-.027Zm2.748-1.552c-.026.016-.052.035-.078.053.026-.019.052-.036.078-.053ZM434.9,392.06q-1.678,2.979-3.261,6.015c-.525,1.006-1.027,2.023-1.522,3.043a6.7,6.7,0,0,0-.921,2.71c2.2-.246,4.442-1.552,6.313-2.706a32.775,32.775,0,0,0,5.306-4.3c1.629-1.545,3.293-3.072,5.037-4.486a21,21,0,0,1,2.536-1.74,3.494,3.494,0,0,0,.768-.557c.271-.282.369-.775.7-.988.671-.435,1.721.214,2.322.508a10.013,10.013,0,0,1,2.23,1.443,21.237,21.237,0,0,1,1.936,2.3c.618.72,1.243,1.407,1.8,2.177a31.63,31.63,0,0,0,4.231,5.041,22.587,22.587,0,0,1,2.281,1.922,15.048,15.048,0,0,0,1.953,1.93,37.017,37.017,0,0,1,4.337,4.162c1.505,1.7,3.217,3.227,4.842,4.812a3.792,3.792,0,0,0-.639-2.708c-.515-1.01-.88-2.1-1.31-3.149q-1.406-3.429-3.141-6.694c-1.078-2.028-2.182-4.04-3.227-6.086-.867-1.7-2.208-3.792-1.794-5.775.162-.774.583-1.941,1.418-2.2s1.669.473,2.341.87a48.558,48.558,0,0,0,6.11,2.958c2.1.877,4.219,1.729,6.241,2.778,1.961,1.017,3.812,2.235,5.774,3.248.97.5,2,.872,2.956,1.4.924.5,1.819,1.061,2.738,1.574a16.6,16.6,0,0,0,5.775,2.019,28.432,28.432,0,0,0-5.289-4.753c-2.19-1.7-4.366-3.422-6.628-5.031-2.032-1.447-4.1-2.84-6.089-4.347-.93-.7-1.849-1.425-2.738-2.18a4.139,4.139,0,0,1-1.73-2.293,2.611,2.611,0,0,1,1.039-2.515,3.682,3.682,0,0,1,2.644-.286,52.8,52.8,0,0,1,7.234,1.792c.547.159,1.108.419,1.656.547a10.443,10.443,0,0,0,1.771.1c1.062.054,2.122.11,3.177.245,1.1.141,2.228.1,3.324.277,1,.16,1.691.7,2.711.675,4.529-.109,8.732,2.408,13.212,2.408q-4.008-2.35-8.035-4.667c-1.231-.708-2.512-1.338-3.7-2.116-1.316-.861-2.525-1.838-3.884-2.643-4.863-2.878-10.274-4.982-14.71-8.528-1.076-.86-2.1-1.784-3.14-2.689a4.739,4.739,0,0,0-.824-.717c-.445-.209-.3-.267-.693.133a11.917,11.917,0,0,0-1.085,1.478,23.021,23.021,0,0,1-5.1,5.159,41.4,41.4,0,0,1-7.45,3.867,75.665,75.665,0,0,1-7.8,3.34,42.782,42.782,0,0,1-8.428,1.7,35.546,35.546,0,0,1-8.782-.217,14.918,14.918,0,0,1-1.456,6.169c-1,1.916-2.264,3.692-3.323,5.575ZM423.61,221.353a5.77,5.77,0,0,0-.708.143c.181-.046.413-.047.548-.085.056-.016.107-.038.16-.058Zm-.8,1.294a2.712,2.712,0,0,1-.236-.671,1.918,1.918,0,0,0,.236.671Zm25.652,37.92c3.342,1.988,6.336,4.487,9.573,6.632a50.438,50.438,0,0,0,5.029,2.911c.834.424,1.673.844,2.543,1.192.753.3,1.478.787,2.25,1.015a6.279,6.279,0,0,0,2.548,0,3.664,3.664,0,0,0,2.061-.528c1.1-.88,1.806-2.64,2.457-3.837a41.1,41.1,0,0,0,2.687-5.329,31.227,31.227,0,0,0,1.766-5.064,2.884,2.884,0,0,1-.042-2.916c.222-.447.508-.858.77-1.281.3-.478.283-.589.816-.6q-.768,2.385-1.535,4.768c.505-1.564,1.188-3.164,1.535-4.768a29.95,29.95,0,0,1,.92-4.122c.255-.693.658-1.345.857-2.055a12.549,12.549,0,0,0,.238-1.8c.217-1.668.646-3.32.909-4.985.5-3.177.824-6.389,1.432-9.548.626-3.249,1.432-6.479,2.141-9.712.27-1.234.754-2.292-.45-3.133-1.154-.8-2.436-1.476-3.655-2.176a32.11,32.11,0,0,0-3.537-1.855,18.124,18.124,0,0,1-3-1.48,6.882,6.882,0,0,0-1.865-.6c-.689-.223-1.369-.481-2.051-.722q-1.88-.665-3.757-1.337c-.685-.244-2.091-1.141-2.733-.462a3.384,3.384,0,0,0-.465,1.525q-.231,1.084-.442,2.173c-.549,2.81-1.076,5.63-1.513,8.461-.428,2.777-.671,5.581-1.1,8.357a9.692,9.692,0,0,0-.381,2.2c.05.5.4.771.745,1.1a32.873,32.873,0,0,1,2.48,2.629c.862,1.021,1.686,2.077,2.618,3.038a14.42,14.42,0,0,1,2.351,2.919c.549.958,1.284,1.858,1.029,3-.2.892-.458,1.779-1.517,1.412a11.373,11.373,0,0,1-3.241-2.46c-.94-.819-1.868-1.651-2.826-2.449-1.059-.882-2.242-1.626-3.265-2.545-.889-.8-1.65-1.726-2.493-2.569-2.023-2.024-4.2-3.838-6.351-5.717-.992-.866-1.783-1.926-2.682-2.882s-1.849-1.809-2.78-2.706c-2.019-1.946-4.12-3.906-6-5.986-.9-1-1.868-1.928-2.775-2.918-.375-.408-.652-.947-1.008-1.336s-.874-.619-1.26-.97c-1.687-1.54-2.628-3.682-4.291-5.251a26.47,26.47,0,0,0-1.08,2.971,12.628,12.628,0,0,1-1.05,2.864c-.245.389-.661.671-.872,1.077a8.823,8.823,0,0,0-.292,1.262,14.468,14.468,0,0,1-1.262,2.327,13.275,13.275,0,0,1-1.767,2.206,3.8,3.8,0,0,1-.506.465c.073-.041.146-.082.222-.121a5.049,5.049,0,0,1-1.772,1.808c.024.049.047.1.068.142.422.913.9,1.758,1.228,2.712.573,1.65,1.415,3.193,1.956,4.854a18.5,18.5,0,0,0,.829,2.664c.373.745.858,1.428,1.223,2.178.852,1.755,1.408,3.68,2.08,5.508.694,1.889,1.5,3.716,2.353,5.535s1.646,3.638,2.4,5.486a11.487,11.487,0,0,0,1.144,2.5,4.233,4.233,0,0,0,2.3,1.314,59.134,59.134,0,0,1,10.066,5.009Zm41.8-53.577c1.975-1.671,4.732-1.2,7.157-1.211,2.817-.012,5.622.542,8.43.731s5.626.323,8.44.264a40.822,40.822,0,0,0,7.469-.8,30.714,30.714,0,0,1,3.644-.484,2.147,2.147,0,0,0,1.879-1.026,8.469,8.469,0,0,0,.417-3.468,8.277,8.277,0,0,0-.226-3.319,3.559,3.559,0,0,0-2.227-1.785q-1.7-.65-3.392-1.3c-4.578-1.754-9.287-3.761-14.22-4.182-1.37-.117-2.744-.129-4.117-.17-1.18-.035-2.269-.322-3.435-.443a68.384,68.384,0,0,1-7.212-.819c-.659-.14-1.074.211-1.745.318a6.843,6.843,0,0,1-1.579.03,20.183,20.183,0,0,0-3.211-.119c-1.281.109-2.57.176-3.84.374-1.141.178-2.246.486-3.4.617a35.006,35.006,0,0,0-3.726.469c-.619.138-1.561.272-1.926.866-.483.787-.121,2.3-.073,3.166.066,1.224.141,2.449.129,3.676a21.252,21.252,0,0,1-.47,3.923,7.785,7.785,0,0,0-.37,3.01.851.851,0,0,0,1.059.7c.382-.059.7-.433,1.05-.479.686-.088.019.424.412.865.315.353.837.254,1.257.371a9.765,9.765,0,0,1,1.294.534c.966.425,1.968.718,2.919,1.187,2.115,1.042,4.124,2.279,6.136,3.5a11.3,11.3,0,0,1,1.255-3.349,15.367,15.367,0,0,1,2.22-1.657ZM351.676,143.6c-.454-1.279-1.05-2.529-1.428-3.831-.135-.466-.135-1.127-.612-1.389a3.568,3.568,0,0,0-1.53-.077c-.769.006-1.539,0-2.308-.006-.384,0-.941-.089-1.168.314s.141,1.18.149,1.644a7.642,7.642,0,0,1-.333,2.067c-.761,2.877-1.551,5.719-2.426,8.569.873-.392,1.55-1.326,2.545-1.432.628-.067,1.111.309,1.691.4.5.082.988.111,1.481.225,2.213.515,4.225,1.662,6.472,2.066a12.735,12.735,0,0,0-.39-2.371c-.22-.692-.464-1.379-.7-2.066-.473-1.375-.959-2.746-1.444-4.117Zm-7.3-19.3c-1.063-.47-2.126-1.835-1.131-2.962.537-.607,1.9-.289,2.6-.144.985.2,4.766,2.669,5.232.992a6.048,6.048,0,0,0-.742-3.726,6.143,6.143,0,0,0-1.251-1.68c-.546-.5-.771-.35-1.443-.276-1.108.124-2.139-.219-2.867.862-.142.209-.171.5-.467.539-.229.034-.365-.25-.6-.251-.374,0-.415.258-.561.548-.381.757-.942,2.246-2.077,1.626s-1.216-2.655-1.218-3.747c0-1.7-.117-3.39-.209-5.083a5.075,5.075,0,0,0-1.167-3.572c-.921-.952-1.635-2.277-2.755-3.006-1.264-.824-2.908-.731-4.357-.843a28.538,28.538,0,0,0-5.067-.141,33.835,33.835,0,0,1-5.07.178c-1.686-.076-3.369-.181-5.056-.224-1.6-.04-3.277.095-4.863-.078-.645-.07-1.5-.3-1.931.334a7.965,7.965,0,0,0-.58,2.877c1.744-.321,4.589-1.126,5.259,1.338.2.746-.425,1.411-.974,1.845a5.821,5.821,0,0,1-2.9.752c-.544.076-1.422.062-1.741.609a5.342,5.342,0,0,0-.182,2.08c-.149,2.4-.491,4.779-.74,7.167a27.416,27.416,0,0,0-.073,6.908c.177,1.17.656,2.269.741,3.448.052.73-.061,1.557.605,2.04.773.56,2.1.562,3.012.762,1.2.264,2.383.581,3.562.922,1.868.54,4.147.809,4.82,2.9.719,2.23,1.249,4.528,1.944,6.769a26.126,26.126,0,0,0,1.346,3.245,2.96,2.96,0,0,1,.457,1.377,5.044,5.044,0,0,1-.589,1.446,5.429,5.429,0,0,1-1.236-.673,8.3,8.3,0,0,1-.99-1.231,7.1,7.1,0,0,0-2-2.129,2,2,0,0,0,.074,1.215,7.684,7.684,0,0,0,.7.8c.561.7,1.1,1.426,1.709,2.089,1.211,1.322,2.676,2.41,3.936,3.693a23.679,23.679,0,0,0,4,3.758c1.484.928,3.07,1.695,4.614,2.517-1.356-3.083-.418-6.186,1.2-8.959.752-1.29,1.665-2.475,2.511-3.7.67-.972,1.964-2.275,1.932-3.524a3.923,3.923,0,0,0-.8-1.786,20.374,20.374,0,0,1-.94-1.9,15.843,15.843,0,0,1-1.6-4.11,5.49,5.49,0,0,1,.946-4c.341-.4.84-.364,1.283-.637a6.534,6.534,0,0,0,1.121-1.031c.405-.407.9-.688,1.306-1.089a7.471,7.471,0,0,0,1.04-1.484c.736-1.219,1.489-2.428,2.227-3.647Zm-4.664-27.1a2.869,2.869,0,0,0-2.548,1.769c.4.625,1.464,2.51,2.344,1.759.163-.14.239-.44.436-.6a2.677,2.677,0,0,1,.635-.328,2.9,2.9,0,0,0,1.35-.892c.735-1.1-1.448-1.718-2.218-1.705Zm-24.927,47.818c-.229-.062-.936.4-1.161.5a6.686,6.686,0,0,0-1.3.64,3.827,3.827,0,0,0-.753,1.061c-.076,2.776-.251,5.572-.23,8.355q.116-4.178.231-8.357a10.688,10.688,0,0,1,.444,2.257c0,.8-.122,1.624-.2,2.419-.142,1.514-.31,3.026-.465,4.538.02.872.06,1.743.135,2.611,1.107-1.54,2.193-3.1,3.3-4.637.993-1.374,2.289-1.453,3.856-1.579l-3.074-6.207c-.117-.237-.589-1.548-.794-1.6Zm-180.918,4.7a38.206,38.206,0,0,0-5.045-1.317,30.817,30.817,0,0,1-4.6-1.37c-1.372-.4-2.76-.745-4.111-1.215a7.947,7.947,0,0,1-2.943-1.468,3.751,3.751,0,0,1-1.134-3.156c.182-1.337,1.169-1.5,2.294-1.883a89.14,89.14,0,0,1,17.51-3.885,62.968,62.968,0,0,1,9.3-.827c1.612.034,3.205.122,4.816.019,1.458-.093,2.943.453,4.378.169a12.828,12.828,0,0,1,4.313.3c1.57.213,3.158.276,4.74.349a20.546,20.546,0,0,1,4.365.385,6.087,6.087,0,0,0,3.824.176c-1.46-1.615-2.915-3.235-4.38-4.845-3.009-3.3-6.132-6.856-7.952-10.988-.78-1.771-1.159-4.324.143-5.972,1.157-1.466,3.685-1.164,5.3-.924a15.571,15.571,0,0,1,5.836,2.14A46.419,46.419,0,0,1,175.7,118.6c1.537,1.248,3.307,2.073,4.862,3.3,1.6,1.263,3.216,2.485,4.837,3.72,3.5,2.667,6.41,6.056,9.725,8.939a61.333,61.333,0,0,1,4.977,4.9,26.072,26.072,0,0,1,2.158,2.526c.534.758,1,1.565,1.561,2.3.675.884,1.522,1.621,2.233,2.477.653.788,1.254,1.618,1.832,2.461.61.887,1.195,1.79,1.8,2.68.317.467.621,1.264,1.259,1.182.9-.116,1.4-.889,2.38-.356a4.758,4.758,0,0,1,.814.729,5.477,5.477,0,0,0,1.282.712,18.284,18.284,0,0,1,2.52,1.749,30.832,30.832,0,0,1,2.578,1.9c3.4,3.071,6.535,6.361,9.8,9.56.79.773,1.618,1.507,2.386,2.3.611.634,1.089,1.386,1.7,2.01a13.466,13.466,0,0,0,1.156.819,9.819,9.819,0,0,1,.939,1.1c.718.824,1.427,1.655,2.165,2.462,1.444,1.583,3.04,2.96,4.428,4.6,1.418,1.678,3.016,3.212,4.465,4.869,3.05,3.488,5.914,7.05,8.718,10.736,1.391,1.829,2.956,3.528,4.282,5.4a39.906,39.906,0,0,1,3.279,5.654c.269.554.613,2.2,1.6,1.621.354-.209.591-.824.81-1.166q.444-.694.884-1.391a56.519,56.519,0,0,0,3.657-6.22c1.945-4.185,3.88-8.335,5.48-12.667.809-2.192,1.732-4.329,2.653-6.475.912-2.128,1.6-4.333,2.493-6.468a103.975,103.975,0,0,1,6.414-12.231,52.909,52.909,0,0,1,7.346-10.415c1.56-1.6,2.788-3.438,4.437-4.973.835-.778,1.7-1.526,2.533-2.305.6-.562,1.117-1.4,1.862-1.776a3.228,3.228,0,0,1,1.66-.186c.442.018.933-.112,1.359-.074.384.036.539.369.91.444a1.137,1.137,0,0,0,.927-.3c1.884-1.3,4.459-1.862,6.61-2.641-1.361-.842-3.03-.873-4.55-1.229a9.38,9.38,0,0,1-3.541-1.626c-2.327-1.756-2.715-4.531-3.137-7.246a34.306,34.306,0,0,1-.445-9.59q.612-4.628,1.3-9.25a29.784,29.784,0,0,1,.956-4.4,11.378,11.378,0,0,0,.787-3.645,3.126,3.126,0,0,0-.509-2.018c-.344-.328-.851-.5-1.217-.826a9.291,9.291,0,0,1-2.077-2.69c-.431-.826-1.128-2.037-.716-2.993.448-1.037,1.873-1.227,2.829-1.475,2.83-.735,5.689-.617,8.564-1.021a28.775,28.775,0,0,1,4.213-.58c1.367.016,2.732.039,4.1.022a77.91,77.91,0,0,1,8.942.185c.79.082,1.563.144,2.354.189a13.4,13.4,0,0,1,1.682.463,5.714,5.714,0,0,0,1.221-.16,6.973,6.973,0,0,1,1.817.087c1.263.237,2.243,1.042,3.5,1.293a3.186,3.186,0,0,1,2.22,1.592c1.265,2.189,1.334,5.209,1.444,7.661.13,2.9-.086,5.82.066,8.72.037.7.112.985.854.912a7.988,7.988,0,0,1,3-.1c2.005.529,3.262,2.354,4.044,4.157a13.275,13.275,0,0,1,1.121,6.089c-.121,1.816-.791,4.164-2.792,4.689a5.778,5.778,0,0,1-3.165-.484c-.953-.3-1.822-1.159-2.34.046a28.111,28.111,0,0,1-3.78,6.753c1.572-.108,3.141-.259,4.714-.338,1.034-.052,2.5-.342,3.489.062.582.237.607.646,1.022,1.008.458.4,1.345.229,1.912.211a35.7,35.7,0,0,1,4.971-.183c1.264.131,2.406.757,3.661,1a25.033,25.033,0,0,1,4.486,1.468c1.356.54,2.686,1.119,4.081,1.554a35,35,0,0,1,4.2,1.526c2.416,1.11,4.467,2.9,6.629,4.429.569.4,1.189.745,1.719,1.2.435.37.722.859,1.141,1.242.671.614,1.455.583,2.182.908a15.412,15.412,0,0,1,2.138,1.461l1.833,1.251a33.189,33.189,0,0,0,3.563,2.367,27.107,27.107,0,0,1,6.052,4.815c2.044,1.914,4.3,3.581,6.266,5.573a46.62,46.62,0,0,1,5.336,6.4c1.646,2.4,3.035,4.944,4.595,7.4a33.692,33.692,0,0,0,2.449,3.06,17.857,17.857,0,0,1,1.167,1.609,5.342,5.342,0,0,0,1.015,1.488,12.662,12.662,0,0,1,2.657,2.119,36.428,36.428,0,0,1,2.318,3.457c1.453,2.357,2.817,4.794,4.111,7.242a4.554,4.554,0,0,1,.443,2.045,17.172,17.172,0,0,0,.364,1.8c.186.981.071,2.011.324,2.984.166.638.576.722,1.093,1.081A11.235,11.235,0,0,1,433.517,205c.87.834,1.715,1.657,2.665,2.4a23.708,23.708,0,0,1,2.8,2.391,25.97,25.97,0,0,0,2.642,2.651c2.131,1.729,4.142,3.643,6.235,5.426,2.173,1.852,4.154,3.884,6.154,5.918,2.066,2.1,4.253,4.073,6.411,6.08.169-2.381.309-4.765.508-7.145a65.826,65.826,0,0,1,1.3-7.6,51.418,51.418,0,0,1,1.525-6.836,4.458,4.458,0,0,1,3.137-3.078c.794-.183,2,.193,2.381-.692a14.652,14.652,0,0,0,.573-3.162c.681-4.172-.672-8.828,1.071-12.819a6.733,6.733,0,0,1,3.835-3.392c2.191-.972,4.611-.73,6.934-1.212a18.787,18.787,0,0,1,3.024-.849c1.111-.05,2.224-.013,3.334.03,1.16.044,2.275-.189,3.427-.186,1,0,1.793.67,2.777.514a6.659,6.659,0,0,1,3.12-.126,11.529,11.529,0,0,0,2.956.4c1.264.036,2.528-.083,3.792-.022,1.161.056,2.269.408,3.419.549a48.714,48.714,0,0,1,7.151,1.229c2.352.648,4.585,1.582,6.867,2.428,3.659,1.357,7.858,2.4,8.866,6.709a21.451,21.451,0,0,1,.369,7.4,12.971,12.971,0,0,1-1.848,5.806c-1.238,1.772-3.292,2.309-5.258,2.92a56.864,56.864,0,0,1-6.868,1.224,35.168,35.168,0,0,1-7.226.714c-2.42-.065-4.787-.7-7.2-.9-2.481-.211-4.953-.5-7.432-.718-1.668-.146-4.854-.618-5.69,1.274-.264.6-.644,1.313-.16,1.849a24.631,24.631,0,0,1,1.6,2,7.139,7.139,0,0,1,1.442,3.067,21.949,21.949,0,0,1,.255,3.526c.068,4.858-1.183,9.784-2.369,14.487a150.321,150.321,0,0,1-4.326,14.506c-1.638,4.522-2.855,9.229-4.8,13.634a40.169,40.169,0,0,1-3.592,6.172c-1.129,1.681-2.161,3.714-3.824,4.934a7.4,7.4,0,0,1-4.9,1.389c-2.067-.165-4.032-1.419-5.842-2.336a86.012,86.012,0,0,1-12.3-8.111c-1.877-1.4-3.58-3.01-5.579-4.248a24.748,24.748,0,0,0-6.12-2.93c1.833,3.863,3.5,7.789,5.448,11.6,1.923,3.761,3.514,7.657,5.245,11.5.712,1.583,1.76,2.951,2.461,4.528q1.2,2.711,2.408,5.421c1.463,3.3,3.021,6.589,4.343,9.947.3.762.165,1.684.555,2.353a15.8,15.8,0,0,1,1.12,2c.642,1.579,1.15,3.169,1.881,4.715,1.618,3.423,2.646,7.106,4.195,10.565s2.953,6.972,4.338,10.51c.678,1.735,1.441,3.437,2.074,5.189a21.921,21.921,0,0,0,2.087,4.715,72.865,72.865,0,0,1,5.291,10.061,14.313,14.313,0,0,1,1.511,5.071c.1,1.635-.912,2.959-1.729,4.275,1.489.754,2.86,1.728,4.354,2.488,1.6.816,3.275,1.456,4.942,2.124q2.528,1.012,5.045,2.052c1.48.61,2.848,1.36,4.283,2.059,1.357.661,2.595,1.533,3.879,2.319,1.389.851,2.8,1.669,4.189,2.52,2.723,1.668,5.374,3.34,8.233,4.775,1.49.748,2.989,1.48,4.481,2.225a9.963,9.963,0,0,1,3.468,2.236,4.848,4.848,0,0,1-.048,5.812c-.83,1.076-2.868.976-4.106,1.011a11.111,11.111,0,0,1-2.532-.192c-.686-.14-1.268-.505-1.936-.675a21.278,21.278,0,0,0-2.382-.255c-.761-.1-1.516-.238-2.269-.392-1.63-.333-3.246-.734-4.874-1.08-1.586-.337-3.176-.663-4.731-1.125a7.018,7.018,0,0,0-1.991-.546,10.016,10.016,0,0,1-2.08-.065c-.742-.132-1.47-.34-2.217-.44-.7-.092-1.4.019-2.084-.1a19.764,19.764,0,0,1-2.247-.695,7.256,7.256,0,0,0-2.166-.15c1.862,1.44,3.808,2.766,5.7,4.158,1.916,1.406,3.7,2.959,5.546,4.456,1.491,1.211,3.355,2.375,4.273,4.117a7.3,7.3,0,0,1,.579,4.682c-.373,1.936-1.805,2.181-3.546,2.3-2.25.156-3.985-.8-5.95-1.765a128.63,128.63,0,0,1-11.2-6.354,57.323,57.323,0,0,0-5.7-2.883q-1.516-.725-3.035-1.442c-.828-.392-1.911-1.172-2.825-1.083,2.514,5.209,5.146,10.363,7.362,15.711a22.787,22.787,0,0,1,1.85,6.995c.129,1.707.039,5.087-2.093,5.652a2.678,2.678,0,0,1-2.449-1.008c-.912-.9-1.753-1.88-2.624-2.818-1.706-1.835-3.487-3.577-5.348-5.255a69.775,69.775,0,0,1-5.463-5.256c-1.613-1.808-3.63-3.177-5.166-5.056-1.578-1.93-2.994-3.986-4.583-5.907-1.046-1.264-1.886-3.244-3.68-3.526-.267,1.493-1.554,2.819-2.454,4.039a48.076,48.076,0,0,1-6.866,7.125,24.292,24.292,0,0,1-7.485,4.793c-1.863.719-5.759,2.383-7.222.122-.7-1.074-.328-3.172-.068-4.348a22.341,22.341,0,0,1,1.868-4.666c1.455-3.056,3.067-5.99,4.7-8.949.822-1.487,1.628-2.984,2.514-4.433a15.59,15.59,0,0,0,2.217-3.919,3.922,3.922,0,0,0,.06-2.009c-.2-.64-.472-.523-1.046-.6-1.259-.18-.88-2.5-.715-3.41a13.649,13.649,0,0,1,.739-2.351,6.716,6.716,0,0,0,.761-2.234c-.028-.664-.673-1.341-.933-1.937a18.056,18.056,0,0,1-.717-2.142c-.983-3.32-2.272-6.527-3.09-9.9a89.338,89.338,0,0,0-2.873-9.88c-1.239-3.364-2.589-6.694-3.716-10.1-1.093-3.3-2.17-6.6-3.371-9.865-2.41-6.553-4.978-13.057-7.818-19.436-2.8-6.294-5.987-12.421-8.41-18.879-1.165-3.106-2.316-6.19-3.414-9.32-1.138-3.245-2.356-6.424-3.673-9.6-1.344-3.241-2.453-6.586-3.6-9.9-1.131-3.261-2.1-6.633-3.494-9.79a5.936,5.936,0,0,0-.947,1.133,6.748,6.748,0,0,1-.831,1.288,12.594,12.594,0,0,1-2.226,1.761,3.5,3.5,0,0,1-1.442.828l-.043.005a2.087,2.087,0,0,1,.311.034l-2.12,1.471c.059-.138.121-.269.186-.4-.229.4-.469.776-.964.861a1.149,1.149,0,0,0,.119.014c-.335.248-1.525,1.432-1.42.155-.046.207.032.363-.055.571a2.368,2.368,0,0,1-.466.594,7.314,7.314,0,0,1-1.129.964c-.942.678-1.958,1.246-2.874,1.962-.264.207-1.163,1.249-1.472,1.249l-1.733,1.51q.331-1.161.664-2.32l-.482,1.682a2.472,2.472,0,0,1-.958,1.326c-.86.769-1.712,1.548-2.6,2.279-1.628,1.334-3.5,2.368-5.239,3.542-.948.638-1.878,1.294-2.78,1.994-.74.575-1.646.778-2.381,1.335a23.112,23.112,0,0,0-2.551,2.454,12.063,12.063,0,0,0-2.069,2.427,11.083,11.083,0,0,0-.748,3.569q-.266,1.754-.524,3.509c-.351,2.4-.683,4.805-.972,7.215-.284,2.369-.631,4.736-.837,7.112-.208,2.405-.156,4.813-.427,7.216a143.978,143.978,0,0,1-2.188,14.475c-1.041,4.778-1.707,9.624-2.61,14.432-.465,2.473-.956,4.94-1.441,7.409-.238,1.214-.495,2.425-.735,3.639-.2,1-.1,2.012-.272,3.023a9.653,9.653,0,0,0-.226,1.636c0,.538.337,1.008.355,1.489a4.916,4.916,0,0,1-.97,2.288,27.569,27.569,0,0,1-2.013,2.3c-.664.753-.931,1.024-.7,2.042,1.012,4.365-1.581,8.022-4.349,11.109a96.228,96.228,0,0,1-9.593,9.614c-1.832,1.541-3.555,3.2-5.308,4.832a32.657,32.657,0,0,1-5.457,3.97c-1.99,1.207-4.1,2.086-6.162,3.147a49.212,49.212,0,0,1-6.174,2.8c-2.057.724-4.139,1.341-6.114,2.261a6.486,6.486,0,0,1-5.11.023,18.287,18.287,0,0,1-2.914-1.922c-.885-.6-1.786-1.181-2.714-1.716a7.573,7.573,0,0,1-3.684-3.635c-.775-2.042-.1-4.494.338-6.544a18.869,18.869,0,0,1,2.509-5.866c1.167-1.892,2.62-3.529,3.96-5.292,1.387-1.823,2.622-3.743,4.072-5.523a62.672,62.672,0,0,1,4.557-5.036c1.613-1.591,3.022-3.365,4.51-5.071.358-.411.906-.852.973-1.434.059-.507-.29-.873-.457-1.32a8.086,8.086,0,0,1-.245-2.722,2.71,2.71,0,0,0-.221-1.294c-.2-.372-.584-.521-.73-.921a8.026,8.026,0,0,1-.153-1.18,9.368,9.368,0,0,0-.463-1.265c-.376-1.122.091-2.43.3-3.542.2-1.051.388-2.1.582-3.154a52.538,52.538,0,0,1,1.446-6.757c1.452-4.477,2.87-8.932,2.967-13.686a33.009,33.009,0,0,1,1.263-6.965q.876-3.663,1.779-7.318c1.154-4.668,2.537-9.268,3.72-13.927,1.178-4.642,2.251-9.315,3.652-13.9a93.173,93.173,0,0,1,5.491-13.328,26.78,26.78,0,0,1,3.612-5.685c1.546-1.852,3.13-3.672,4.718-5.489,3.2-3.666,6.408-7.329,9.657-10.953a44.879,44.879,0,0,1,5.144-5.052c1.682-1.361,3.986-2.507,4.516-4.732.15-.628.251-1.267.415-1.891a4.163,4.163,0,0,0,.344-1.3c-.092-.779-1.534-1.077-2.117-1.341-2.018-.913-4.059-1.818-6.038-2.812a30.756,30.756,0,0,1-3.083-1.889,10.429,10.429,0,0,0-2.8-1.033,35.561,35.561,0,0,1-6.1-2.662c-2.043-1.081-4.1-2.162-6.084-3.354a32.129,32.129,0,0,1-5.276-4.278c-.762-.706-1.3-.351-1.845.427-.657.945-1.35,1.867-2.029,2.8a3.976,3.976,0,0,1-1.038,1.2c-.017.011-.031.017-.048.026.078-.026.16-.055.254-.092a5.294,5.294,0,0,1-1.821,2.774c.073-.2.142-.4.211-.6a4.883,4.883,0,0,1-.821,1.41,23.7,23.7,0,0,1-2.358,2.606c-.436.429-.877.853-1.318,1.278-.176.17-.353.34-.528.51a2.153,2.153,0,0,1-.742.5c-.6.272-.743.748-1.263,1.123-.782.565-1.755.938-2.564,1.495-.661.454-1.235,1.379-2,1.548-.277.061-.483.017-.7.235-.293.287.012.281-.45.385-.233.052-.473-.081-.708-.007a2.658,2.658,0,0,0-.675.446q-.716.522-1.431,1.046-1.286.944-2.557,1.909c-1.685,1.286-3.231,2.741-4.92,4.018a30,30,0,0,1-2.747,1.7c-.777.467-1.433,1.1-2.161,1.633-.87.638-1.885.949-2.788,1.526-.886.566-1.739,1.151-2.66,1.661a56.761,56.761,0,0,1-6.189,3.015,20.462,20.462,0,0,1-6.7,1.686,16.353,16.353,0,0,1-6.815-1.376,60.81,60.81,0,0,1-6.355-2.938c-2-1.071-3.859-2.358-5.818-3.493s-3.832-2.329-5.707-3.62a52.984,52.984,0,0,0-5.4-3.6c-1.941-1.011-3.661-2.327-5.488-3.52q-2.817-1.839-5.606-3.711c-3.885-2.6-7.775-5.253-11.465-8.131a45.96,45.96,0,0,1-5.072-4.43c-1.657-1.738-3.633-3.217-5.452-4.78l-5.238-5.084-.009-.009,5.246,5.093a4.836,4.836,0,0,1-2.038-1.213q-1.054-.817-2.089-1.659c-1-.818-2.167-1.66-2.051-3.109-.44-.41-.889-.811-1.357-1.185-.764-.61-1.676-.982-2.489-1.522-1.668-1.109-3.1-2.52-4.667-3.759-.69-.545-1.309-.957-1.416-1.892a26.542,26.542,0,0,1,.027-3.136,7.6,7.6,0,0,0-.07-2.64c-.3-.749-1.312-1.071-1.964-1.428-1.843-1.011-3.658-2.071-5.5-3.08a13.118,13.118,0,0,0-5.469-1.831c-.9-.078-1.771-.214-2.665-.353a7.928,7.928,0,0,0-2.689.294c-2.052.376-4.129.6-6.18.982s-4.109.9-6.149,1.4-4.08,1.039-6.154,1.4a23.746,23.746,0,0,0-3.186.639c-.778.25-1.525.6-2.325.779a51.911,51.911,0,0,0-5.8,1.124,32.709,32.709,0,0,1-5.786,1.267c-1.031.156-2.059.321-3.079.542a3.776,3.776,0,0,1-1.788.059,3.98,3.98,0,0,1-2.757-2.612c-1.141-3.458,1.066-7.17,3.314-9.622,2.411-2.631,5.457-4.472,8.35-6.507a26.883,26.883,0,0,0-3.451.064c-.987.018-1.954-.026-2.943.028-2.191.12-4.373-.514-6.567-.561-2.968-.064-6.632-.669-7.407-4.052-.722-3.149,2.619-5.987,5-7.416,1.531-.918,3.081-1.758,4.581-2.73a30.154,30.154,0,0,1,5.352-2.347,49.448,49.448,0,0,1,5.489-1.9,42.627,42.627,0,0,0,5.351-1.437,22.354,22.354,0,0,0-4.952-1.151c-1.675-.313-3.322-.727-4.964-1.181Z" transform="translate(-116 -47.18)" fill-rule="evenodd"/>
      <path id="Fill-56" d="M735.882,418.705a1.594,1.594,0,0,0,1.341,1.284,33.883,33.883,0,0,0,3.778.487,59.809,59.809,0,0,1,6.813.926,24.587,24.587,0,0,1,6.024,2.279c-.613-2.93-1.307-5.775-1.05-8.793.189-2.215.242-5.553,2.481-6.834a4.622,4.622,0,0,1,1.915-.216c.749-.04,1.5-.075,2.249-.117,1.483-.082,2.958-.238,4.436-.382,2.914-.285,5.807-.638,8.7-1.064.479-.07,1.339-.018,1.659-.433.237-.305.124-.788.106-1.131a20.236,20.236,0,0,1,.134-3.547,41.778,41.778,0,0,1,1.831-7.586c.4-1.248.834-2.486,1.241-3.732.2-.6.651-1.424,0-1.856a5.5,5.5,0,0,0-1.589-.385c-.562-.14-1.11-.323-1.66-.5q-1.948-.641-3.893-1.292c-4.93-1.642-9.9-3.176-14.82-4.85-.688-.234-1.371-.48-2.059-.714-.3-.1-.816-.362-1.137-.221-.375.165-.3.578-.572.824-.235.214-.768.23-1.071.4a9.348,9.348,0,0,0-1.854,1.842c-.776.8-1.644,1.509-2.411,2.327a44.135,44.135,0,0,0-7.32,11.345,20.8,20.8,0,0,0-1.187,3.393,28.646,28.646,0,0,0-.878,3.316c-.408,2.651-.423,5.379-.751,8.046-.274,2.236-.987,4.944-.459,7.184m19.652-5.988a24.527,24.527,0,0,0,.486,5.271,39.186,39.186,0,0,0,1.76,5.192c.606,1.608,1.1,3.266,1.8,4.834.693,1.548,1.582,2.959,2.138,4.566,1.141,3.295,3.095,6.186,4.478,9.367a97.379,97.379,0,0,0,4.742,9.44A33.522,33.522,0,0,0,773.6,455.8a19.711,19.711,0,0,0,1.729,1.89c.528.506.782.12,1.421.235.932.167,1.412,1.376,2.015,2,1.143,1.178,2.31,2.341,3.561,3.4,1.282,1.087,2.7,2,4.013,3.042a23.12,23.12,0,0,0,3.943,2.63c2.833,1.439,6.09,3.2,9.358,3.052,1.5-.07,2.309-1.048,2.939-2.355.667-1.383.442-3.041.33-4.525a10.221,10.221,0,0,0-1.513-4.86c-.936-1.489-.013-2.413.919-3.654,2.081-2.769,4.853-4.926,7.382-7.266q1.958-1.814,3.893-3.652l2.142-2.028c.523-.5,1.028-.83,1.216-1.527a35.25,35.25,0,0,1-4.218-2.38c-2.677-1.958-5.133-4.347-7.656-6.5a23.482,23.482,0,0,1-3.144-3.568,44.448,44.448,0,0,1-2.828-3.651,80.477,80.477,0,0,1-5.117-8.583,22.712,22.712,0,0,1-1.406-4.625c-.217-.963-.467-1.919-.711-2.876a6.718,6.718,0,0,0-.6-2.189c-.727-.939-3.013.577-3.85.844a32.078,32.078,0,0,1-4.847.991c-3.457.534-6.937.991-10.372,1.654-1.8.347-3.6.732-5.429.914a49.937,49.937,0,0,1-5.323.071c-.38,0-.844.064-1.1-.284-.145-.2-.048-.447-.281-.634-.3-.243-.7-.113-1.052-.075-.71.076-1.422.119-2.131.207a3.691,3.691,0,0,0-1.177.148c-.276.17-.18.683-.179,1.074m49.751,47.407a14.734,14.734,0,0,1,1.33,5.847,13.5,13.5,0,0,1-.321,2.95,7.662,7.662,0,0,0-.509,2.669c2.1-.97,4.16-2.014,6.3-2.89a19.063,19.063,0,0,0,4.759-3.324c1.634-1.343,3.113-2.84,4.683-4.255,1.685-1.518,3.442-2.954,5.155-4.438a63.546,63.546,0,0,0,8.116-8.772c2.2-2.776,5.358-6.317,5.21-10.073a12.162,12.162,0,0,0-1.052-5.286,12.023,12.023,0,0,0-3.2-3.616c-1.155-.834-2.289,1.261-2.938,2-1.4,1.584-2.824,3.142-4.243,4.707-2.7,2.977-5.258,6.1-8.176,8.871-2.941,2.789-5.948,5.517-9.115,8.045a56.673,56.673,0,0,0-4.771,3.879c-.528.527-1.554,1.106-1.907,1.764-.378.708.38,1.329.675,1.925M733.1,419.01c.445-.057.423,0,.461-.433a12.36,12.36,0,0,0-.238-2.15,52.938,52.938,0,0,1,.11-9.819c.552-6.328,1.856-12.55,5.164-18.04a32.044,32.044,0,0,1,5.419-6.955,35.014,35.014,0,0,1,3.076-2.756c.554-.408,1.36-.614,1.864-1.032.272-.226.393-.686.623-.975a3.5,3.5,0,0,1,3.42-1.324,26,26,0,0,1,4.578,1.012c3.119.865,6.11,2.336,9.131,3.5s6.035,2.408,9.028,3.676a20.628,20.628,0,0,1,4.026,1.816,1.955,1.955,0,0,1,.828,1.962c-.265,2.953-1.361,5.885-2.195,8.71a44.146,44.146,0,0,0-1.854,9.286c3.092-.227,6.165-.462,9.242-.851,1.539-.195,3.087-.354,4.623-.565a3.9,3.9,0,0,0,1.8-.818c.561-.362.85-.056,1.089.495,1.245,2.86,1.735,5.98,3.083,8.819.6,1.275,1.361,2.465,1.99,3.728a35.632,35.632,0,0,0,2.368,3.993c.4.59.91,1.066,1.351,1.619.409.512.7,1.1,1.079,1.637a23.71,23.71,0,0,0,2.7,3.071c.967.969,1.9,1.952,2.828,2.961.908.992,1.992,1.8,2.952,2.735.9.882,1.69,1.842,2.617,2.706.893.833,1.311,1.988,2.271,2.737.518.4,1.092.728,1.607,1.135.426.336.87.924,1.475.811.671-.126,1.211-1.027,1.63-1.493q.811-.9,1.634-1.788c2.152-2.33,4.359-4.614,6.529-6.928,1.061-1.132,2.228-2.158,3.262-3.316a2.572,2.572,0,0,1,3.042-.867,13.357,13.357,0,0,1,3.2,1.969,24.886,24.886,0,0,1,2.439,3.264,8.825,8.825,0,0,1,1.314,3.813,18.93,18.93,0,0,1,.341,4.309c-.208,2.754-.719,5.828-2.312,8.147a22.834,22.834,0,0,1-2.728,2.886,27.328,27.328,0,0,0-2.557,3.442,44.51,44.51,0,0,1-5.8,6.424c-1,.942-2.122,1.736-3.123,2.681A28.822,28.822,0,0,1,823.143,465a36.712,36.712,0,0,0-3.365,2.973,37.622,37.622,0,0,1-3.585,2.866,26.246,26.246,0,0,1-7.7,3.64c-3.1.936-6.105,2.161-9.191,3.139-1.478.469-2.942-.179-4.35-.654a24.142,24.142,0,0,1-4.167-1.8c-2.682-1.512-5.257-3.266-7.895-4.859a28.926,28.926,0,0,1-7.131-5.978c-2-2.31-4.111-4.6-5.93-7.058-3.693-4.983-5.926-10.877-8.667-16.395-1.457-2.933-2.934-5.82-4.145-8.868-.6-1.5-1.129-3.026-1.738-4.519a1.265,1.265,0,0,0-1.161-.987c-.8-.125-1.613-.179-2.414-.275-3.17-.378-6.264-.939-9.405-1.481a25.455,25.455,0,0,1-8.455-2.5,3.559,3.559,0,0,1-1.5-1.26c-.136-.266-.47-1.614-.281-1.83.11-.126.854-.111,1.043-.136" transform="translate(-728.104 -192.86)" fill-rule="evenodd"/>
      <path id="Fill-58" d="M735.79,37.239c-1.012-.533-2.045-1.024-3.074-1.524-2.18-1.06-4.326-2.191-6.53-3.2-1-.456-2.04-.747-3.065-1.13-1.088-.406-2.129-.943-3.174-1.448-2.2-1.063-4.441-1.978-6.721-2.841q-1.048-.4-2.1-.783a8.794,8.794,0,0,0-1.751-.645c-.887-.1-1.553.8-2.158,1.344-3.261,2.935-5.564,7.287-6.965,11.4a45.443,45.443,0,0,0-1.519,6.893,42.959,42.959,0,0,0-.878,7.149c-.017,2.467-.27,4.9-.161,7.372.041.922-.126,2.581.382,3.385s1.8,1.042,2.634,1.343c4.538,1.646,9.072,3.417,13.676,4.865q7.185,2.259,14.348,4.586c-.195-1.359-.422-2.717-.575-4.081a32.841,32.841,0,0,1-.025-3.9,43.8,43.8,0,0,1,.687-8.444,42.151,42.151,0,0,1,5.509-14.414,28.536,28.536,0,0,1,2.221-2.886c.279-.333,1.214-1.119,1.181-1.631-.044-.671-1.459-1.151-1.943-1.406m-54.454-.55c-1.047.048-1.725.289-1.8,1.41-.093,1.429-.073,2.877-.124,4.309-.1,2.739-.2,5.48-.125,8.222A50.647,50.647,0,0,0,681.4,64.818c.711,2.219,1.562,4.4,2.48,6.54a59.577,59.577,0,0,0,3.267,5.9,13.192,13.192,0,0,0,1.923,2.552c.358.383.523.588,1.03.653a9.185,9.185,0,0,0,1.678-.1c2.43-.175,4.859-.416,7.292-.533,2.413-.116,4.835-.014,7.245-.126a29.569,29.569,0,0,0,3.312-.6c1.121-.181,2.254-.26,3.381-.387.581-.065.567.072.655-.457a4.691,4.691,0,0,0-.049-.933c-.029-.555-.058-1.111-.091-1.666a6.6,6.6,0,0,0-.131-1.836c-.179-.418-.563-.49-.963-.6a59.915,59.915,0,0,1-6.57-2.248c-2.2-.887-4.431-1.726-6.608-2.674a7.676,7.676,0,0,1-2.708-1.554,5.891,5.891,0,0,1-1.176-2.254c-1.419-4.45-.973-9.578-.558-14.162a51.266,51.266,0,0,1,2.826-13.977c-5.429,0-10.874.09-16.3.339m60.6,4.074a7.612,7.612,0,0,0-3.337,3.152,39.7,39.7,0,0,0-2.982,4.91,42.214,42.214,0,0,0-3.665,11.616,33.972,33.972,0,0,0-.224,11.871,28.4,28.4,0,0,0,1.012,2.808,4.59,4.59,0,0,1-.117,2.242c-.253.927-1.127.611-1.856.461-1.063-.219-2.126-.436-3.188-.66-4-.845-7.966-2.314-12.041-2.611a9.161,9.161,0,0,0,1.242,3,10.93,10.93,0,0,1,1.905,2.669,4.787,4.787,0,0,1,.055,2.978c-.336.929-1.157.943-2.019,1.047-2.423.294-4.807.693-7.249.826a6.434,6.434,0,0,1-1.567-.012,2.77,2.77,0,0,0-1.132-.127c-.559.1-1.051.372-1.637.432a11.954,11.954,0,0,1-1.661.018c-2.045-.077-4.045.137-6.093-.063-.6-.058-1.717-.4-2.275-.056-.589.36-.127,1.088-.421,1.588-.386.657-1.714.32-2.356.285a6.056,6.056,0,0,1-2.551-.635,14.5,14.5,0,0,1-4.383-3.412,26.236,26.236,0,0,1-3.119-4.941,47.457,47.457,0,0,1-2.63-5.457,39.593,39.593,0,0,1-1.876-6c-.417-2.041-.681-4.114-1.075-6.161a46.547,46.547,0,0,1-.591-6.478,59.26,59.26,0,0,1-.021-6.7c.138-2.207.382-4.371.64-6.564.066-.561.032-1.141.121-1.7a10.951,10.951,0,0,0,.276-1.106c.043-.753-.647-1.237-.629-2.024.042-1.829,1.987-2.51,3.432-2.947a16.86,16.86,0,0,1,5.94-.77c4.227.3,8.549.343,12.558,1.887,2.077-3.561,4.013-7.424,7.413-9.921a3.363,3.363,0,0,0,1.048-.891,5.953,5.953,0,0,1,.589-1.037,2.41,2.41,0,0,1,2.535-.683,36.963,36.963,0,0,1,6.171,1.748c.895.357,1.844.525,2.743.874.864.335,1.69.756,2.52,1.165,1.817.9,3.7,1.657,5.511,2.561a85.635,85.635,0,0,1,10.606,6.035,31.945,31.945,0,0,1,4.854,3.7,2.738,2.738,0,0,1,.778,2.28c-.1.9-.565.549-1.253.807" transform="translate(-600.996 -11.272)" fill-rule="evenodd"/>
      <path id="Fill-60" d="M228.206,42.077c-.178-2.318-.106-4.643-.274-6.959a54.372,54.372,0,0,0-1.037-6.607,29.629,29.629,0,0,0-2.138-6.2c-.5-1.127-.975-2.261-1.456-3.395-.293-.7-.508-1.416-1.322-1.6a19.23,19.23,0,0,0-3.412-.084q-1.644-.059-3.284-.2c-2.375-.211-4.734-.558-7.105-.8a66,66,0,0,1-6.758-.841c-1.154-.241-2.3-.522-3.442-.8-.858-.21-2.046-.748-2.908-.543a19.261,19.261,0,0,1,1.425,7.651c.01,1.036.132,1.46,1.211,1.4,1.346-.079,2.7-.215,4.037-.369,2.527-.291,5.033-.754,7.539-1.188,1.187-.206,2.328-.5,3.492-.756.827-.182,1.175.146,1.451.9.2.547.264.793.777,1.1a11.46,11.46,0,0,1,1.217.795,9.139,9.139,0,0,1,1.784,1.9,21.86,21.86,0,0,1,2.5,5.245,46.686,46.686,0,0,1,2.644,14.346c.078,2.46.484,4.871.51,7.339.013,1.088-.265,2.487.643,3.278a24.973,24.973,0,0,0,3.021,1.963,24.128,24.128,0,0,0,1.119-7.748c.027-2.611-.036-5.218-.236-7.821M191.441,28.9c-1.085.289-2.176.544-3.27.8,1.861,4.46,1.8,9.394,1.937,14.149a49.975,49.975,0,0,1-.2,6.375,61.513,61.513,0,0,1-1.139,6.356c-.1.463-.324,1.224-.019,1.649.338.471,1.447.725,1.928.942,1.908.86,3.786,1.793,5.732,2.565,1.973.783,4.024,1.253,5.953,2.162,1.889.89,3.8,1.705,5.769,2.408,1.932.692,3.938,1.2,5.8,2.068a22.742,22.742,0,0,1,4.732,3.18,34.205,34.205,0,0,0,1.435-8.7,55.641,55.641,0,0,0,.1-8.651,30.434,30.434,0,0,1-.107-3.8c.023-1.161-.245-2.3-.337-3.456-.2-2.546-.2-5.09-.54-7.626-.653-4.8-1.948-9.875-4.562-13.987a4.022,4.022,0,0,0-.559-.879c-.387-.326-.25-.265-.759,0-.475.244-.944.5-1.435.717a24.939,24.939,0,0,1-3.207.951,29.145,29.145,0,0,1-3.505,1.048c-1.2.185-2.413.208-3.609.4-.661.1-1.269.323-1.912.487a10.877,10.877,0,0,1-1.589.156c-1.066.113-2.1.411-3.172.507a19.272,19.272,0,0,0-3.464.183m39.377,20.71a32.594,32.594,0,0,1-2.3,8.542c-.368.878-.783,2.106-1.835,2.348-.97.224-2.146-.49-3.06-.74-.717,4.261-1.03,8.689-2.932,12.639-.24.5-.556,1.428-1.05,1.755s-1.118.008-1.621-.183a59,59,0,0,0-6.482-1.867c-1.066-.27-2.153-.511-3.193-.872a17.251,17.251,0,0,0-2.586-.825,35.094,35.094,0,0,1-5.459-1.6,65.78,65.78,0,0,1-11.117-4.569,48.015,48.015,0,0,1-4.97-3.063c-1.266-.952-2.683-2.378-2.062-4.106.188-.523.7-1.388,1.293-1.547.555-.15,1.054.352,1.562.468.768.176.6-.444.667-1.049.056-.476.115-.953.173-1.43.121-1,.24-2,.33-3.006.37-4.16.2-8.317.2-12.484a24.381,24.381,0,0,0-.968-5.924q-.387-1.6-.726-3.21a3.91,3.91,0,0,1-.1-1.855c.387-1.353,2.314-1.727,3.456-2.113a24.155,24.155,0,0,1,2.992-.822c.557-.111,2.044-.024,2.4-.492s-.038-1.964-.074-2.515c-.067-1.014-.137-2.027-.271-3.035-.215-1.626-.192-3.134,1.106-4.323-.809-.645-1.383-2.013-.207-2.607a6.983,6.983,0,0,1,4.594-.424,35.993,35.993,0,0,0,4.88.569c1.7.182,3.4.4,5.1.618,2.925.37,5.9.451,8.793,1.045,1.447.3,2.895.523,4.353.753,1.51.238,2.421.441,3.325,1.715a30.507,30.507,0,0,1,4.257,7.717,35.509,35.509,0,0,1,1.589,8.287,89.574,89.574,0,0,1,.3,9.07,80.432,80.432,0,0,1-.365,9.136" transform="translate(151.622 -5.63)" fill-rule="evenodd"/>
      <path id="Fill-62" d="M30.872,307.577c-.173-.294-.7-.366-.975-.477a9.86,9.86,0,0,1-1.257-.628,57.5,57.5,0,0,1-5.9-3.79c-.461-.347-1.595-1.62-2.262-1.419-.327.1-.506.642-.648.907-.248.466-.506.926-.787,1.374a23,23,0,0,1-4.029,4.759,16.042,16.042,0,0,1-10.174,4.549A127.605,127.605,0,0,0,12.773,323.2c1.471,1.622,3.084,3.088,4.612,4.653a2.139,2.139,0,0,0,.745.581,2.626,2.626,0,0,1,.924.47,2.014,2.014,0,0,1,.4,1.812c2.713.1,5.65-1.11,8.112-2.106A35.9,35.9,0,0,0,31.8,326.6a8.973,8.973,0,0,0,2.63-1.944c-2.488-1.323-5-2.582-7.387-4.09-1.628-1.029-4.5-2.23-4.272-4.605a1.41,1.41,0,0,1,.509-1.036c.484-.315.594.057,1.035.152.715.155,1.559-.79,2.1-1.2a12.478,12.478,0,0,0,3.791-3.964c.262-.494,1-1.77.665-2.343m15.152,21.03c-.4-1.315,1.481-2.328,2.313-2.96a11.985,11.985,0,0,0,2.955-3.328c3.275-5.176,4.435-11.48,4.166-17.532-.074-1.68-.265-3.356-.3-5.037A12.7,12.7,0,0,0,55,297.2c-.181-.814-.4-1.62-.6-2.43-.4-1.615-.6-3.27-1.081-4.867a25.054,25.054,0,0,0-1.752-4.278c-.471-.916-.909-2.2-2.14-2.024a38.424,38.424,0,0,0-4.537,1.424c-1.658.457-3.334.84-5.008,1.233-1.619.38-3.2.921-4.831,1.249a11.815,11.815,0,0,1-2.562.227c-.378-.007-1.058-.043-1.1.475-.041.566.828,1.181,1.185,1.528a4.689,4.689,0,0,1,1.15,1.6,19.913,19.913,0,0,1,1.495,4.837,37.776,37.776,0,0,1,.214,4.974,25.555,25.555,0,0,1-1.62,9.575,15.267,15.267,0,0,1-5.066,6.61q3.614,1.8,7.229,3.6a28.652,28.652,0,0,1,6.222,3.6,11.383,11.383,0,0,1,2.213,2.27c.682,1.07-.277,1.8-1.294,1.369-1.119-.47-2.219-1.008-3.314-1.531-.713-.34-1.9-1.251-2.734-1.228-.706.02-.975.923-1.289,1.424A10.893,10.893,0,0,1,33.966,329a19.768,19.768,0,0,1-4.953,3.337,24.1,24.1,0,0,1-6.275,1.951,17.411,17.411,0,0,1-3.569.261,7.4,7.4,0,0,1-2.974-.474c-.7-.377-.331-1.145-1.02-1.539-.726-.414-1.494-.723-2.195-1.188a11.478,11.478,0,0,1-3.612-4.212c-2.232-3.893-4.947-7.451-6.617-11.647a12.757,12.757,0,0,0-1.253-3c-.425-.57-1.375-.91-1.478-1.658-.1-.731.194-2.349.921-2.687a16.3,16.3,0,0,1,2.974-.609,25.485,25.485,0,0,0,10.818-4.956,24.628,24.628,0,0,0,2.236-2.114,2.459,2.459,0,0,0,.959-1.957c-.094-.728-.678-1.79.513-1.994a4.206,4.206,0,0,1,2.548.7c1.951,1.232,3.764,2.714,5.627,4.074,1.7,1.24,3.439,2.422,5.166,3.623-.2-2.855-.108-5.95-.788-8.737a13.011,13.011,0,0,0-1.657-3.829c-.765-1.215-1.376-2.488-2.045-3.755-.372.216-.981.7-1.322.124a3.4,3.4,0,0,1,.017-1.71c.593-3.048,5.221-3.353,7.608-3.873,3.433-.748,6.861-1.652,10.335-2.183,1.6-.245,3.2-.294,4.81-.392.828-.051,1.794-.235,2.3.6.134.225.154.546.3.725a5.917,5.917,0,0,0,.711.474,7.809,7.809,0,0,1,1.4,1.489,18.508,18.508,0,0,1,1.944,3.715,35.764,35.764,0,0,1,2.485,9.7,55.642,55.642,0,0,1,.492,10.377c-.414,6.327-2.133,12.763-6.118,17.82a9.954,9.954,0,0,1-3.226,2.8c-.637.335-2.64,1.518-3,.347" transform="translate(413.01 -144.129)" fill-rule="evenodd"/>
      <path id="Fill-65" d="M32.492,503.076c1.235,1.589,2.468,3.16,3.572,4.846s2.169,3.426,3.256,5.138a48.665,48.665,0,0,1,3.061,5.026c.486,1.021.533,2.365,1.868,2.318a11.455,11.455,0,0,0,4.99-1.391,20.687,20.687,0,0,0,7.654-6.922,41.772,41.772,0,0,0,4.721-9.992c.628-1.923,1.131-3.883,1.585-5.853a13.415,13.415,0,0,0,.48-3.01c0-.454-.027-.907-.05-1.36-.022-.428-.261-1.176.232-1.206-.147-1.232-.288-2.463-.439-3.694-.109-.89-.1-1.887-.882-2.475a7.314,7.314,0,0,0-2.8-.782q-1.595-.361-3.16-.842c-2.139-.656-4.185-1.524-6.249-2.38a27.343,27.343,0,0,1-3.034-1.412c-.8-.456-1.38-1.117-1.924-.078-3.709,7.069-6.419,14.992-12.491,20.477-.491.443-1.295.976-1.367,1.7-.07.708.583,1.387.975,1.891m-4.883-5c.856-.587,1.918-.685,2.787-1.227,1-.622,1.655-2.023,2.334-2.956,1.623-2.227,3.249-4.468,4.714-6.8,1.33-2.121,2.534-4.319,3.812-6.471a35.008,35.008,0,0,1,2.1-3.2c.328-.436,1.161-1.976,1.863-1.919.362.029.348.381.607.5.134.058.24-.006.371.012.47.063.98-.175,1.465-.128a20.211,20.211,0,0,1,3.642.966c2.4.725,4.7,1.745,7.058,2.583,2.342.83,4.958,1.385,7.1,2.678.845.51,1.8,1.327.97,2.326-.315.379-.747.369-1.074.663-.277.248-.153.385-.09.8.037.236.074.472.111.708a25.712,25.712,0,0,1,.351,7.472,53.431,53.431,0,0,1-1.589,7.507C61.9,509.33,57.9,518.528,50.026,521.962a24.661,24.661,0,0,1-5.612,1.354,6.043,6.043,0,0,0-1.67.671,1.687,1.687,0,0,1-.893.312c-.712-.088-1.3-1.195-1.631-1.718-1.257-1.977-2.683-3.833-3.988-5.778a31.094,31.094,0,0,1-1.867-3.118c-.32-.624-.55-1.659-1.43-1.636l-.712.951a2.956,2.956,0,0,0-.308.411c-.175.358-.161.093-.088.516a4.474,4.474,0,0,0,.911,1.58c1.852,2.5,3.786,4.946,5.728,7.38a63.675,63.675,0,0,0,6.092,6.863,2.72,2.72,0,0,0,1.609.97,9.525,9.525,0,0,0,1.887-.4,31.317,31.317,0,0,0,3.956-.681,8.588,8.588,0,0,1,1.919-.64,2.952,2.952,0,0,0,1.489-.445c1.154-.7,2.438-1.08,3.605-1.739a24.964,24.964,0,0,0,6.66-5.5c.914-1.1,1.665-2.333,2.562-3.45.872-1.087,1.733-2.166,2.5-3.335a34.234,34.234,0,0,0,3.611-7.4c.473-1.349.708-2.23-.468-3.217a23.488,23.488,0,0,1-3.071-3.022c-.449-.546-2.5-2.547-.964-2.879.832-.181,2.159,1.222,2.784,1.731a17.8,17.8,0,0,0,3.192,2.224c1.333.671,1.357,1.523,1.338,2.918a22.616,22.616,0,0,1-2.22,8.3,38.567,38.567,0,0,1-4.3,7.627c-3.288,4.533-6.966,9.132-12.078,11.667a23.961,23.961,0,0,1-8.05,2.228,36.608,36.608,0,0,1-4.969.208,8.921,8.921,0,0,1-2.286-.135c-.544-.173-.633-.576-.83-1.07-.467-1.17-1.688-1.805-2.513-2.742-.881-1-1.806-1.945-2.712-2.923-1.964-2.118-3.264-4.61-4.841-7-.873-1.323-1.817-2.617-2.579-4.01a13.873,13.873,0,0,1-1.6-3.884,2.293,2.293,0,0,1,1.77-2.547c.586-.029,1.055.432,1.633.491a4.69,4.69,0,0,1,.972-.016c-.944-2.293-2.343-4.452-3.4-6.683-.6-1.258-1.165-2.532-1.692-3.822-.4-.982-.877-1.787.14-2.485" transform="translate(381.139 -244.156)" fill-rule="evenodd"/>
      <path id="Fill-67" d="M146.548,145.749c-1.854,4.282-4.836,7.7-7.881,11.172a35.018,35.018,0,0,1-5.209,4.99c-1.818,1.377-3.659,2.722-5.5,4.075,1.842,2.368,3.912,4.533,5.965,6.721a28.693,28.693,0,0,1,5.036,6.585,3,3,0,0,1,1.951-2.421,17.871,17.871,0,0,0,3.639-2.166,55.856,55.856,0,0,0,6.694-6.445c4.168-4.628,6.824-10.449,9.719-15.893l-14.419-6.618m15.4,10.8a53.816,53.816,0,0,1-2.657,5.763c-.92,1.852-1.873,3.693-2.947,5.462a30.551,30.551,0,0,1-7.719,8.853,35.57,35.57,0,0,1-4.961,3.184,5.266,5.266,0,0,1-2.65.678c-.571-.033-1.361-.538-1.8-.087s-.3,1.386-1.255.938a7.625,7.625,0,0,1-2.043-1.767c-1.463-1.564-2.932-3.137-4.337-4.754a49.343,49.343,0,0,1-3.629-5.075c-.634-.951-1.262-1.907-1.891-2.862A4.046,4.046,0,0,1,125,164.653c.064-1.689,2.135-2.834,3.312-3.773a32.009,32.009,0,0,0,4.01-3.711c1.307-1.466,2.953-2.693,4.367-4.07a63.875,63.875,0,0,0,4.3-4.755,41.915,41.915,0,0,0,3.1-4.054c.723-1.112,1.539-1.966,2.985-1.759a25.152,25.152,0,0,1,3.357.864c1.1.418,2.152.946,3.218,1.437,1.931.889,3.708,2.014,5.584,3a9.234,9.234,0,0,1,1.232.743c.213.159.429.464.655.578a2.325,2.325,0,0,0,.475.119,2.216,2.216,0,0,1,1.427,1.3,2.373,2.373,0,0,1,.035,2.749,26.894,26.894,0,0,0-1.1,3.226" transform="translate(247.098 -73.341)" fill-rule="evenodd"/>
      <path id="Fill-69" d="M320.289,236.955c-.475.762-1.252.387-1.7-.156-1.35-1.648-2.612-3.431-3.824-5.184-1.229-1.78-2.356-3.582-3.75-5.243s-2.841-3.319-4.3-4.944c-5.434-6.079-11.01-12.013-17-17.535-1.465-1.35-2.971-2.668-4.377-4.08A3.312,3.312,0,0,1,284,197.548a2.442,2.442,0,0,1,1.059-1.869c1.292-.755,3.026,1.085,3.986,1.772a22.567,22.567,0,0,0,2.293,1.233,11.7,11.7,0,0,1,1.927,1.472c1.3,1.16,2.7,2.146,4.016,3.275,1.338,1.147,2.52,2.463,3.833,3.637a45.145,45.145,0,0,1,4.162,3.765c1.233,1.41,2.274,2.95,3.561,4.322a92.116,92.116,0,0,1,7.317,9.469,26.316,26.316,0,0,1,2.735,5.045c.379.881.754,1.765,1.112,2.655a12.407,12.407,0,0,1,.524,2.589c-.2.039-.05,1.738-.24,2.042" transform="translate(12.607 -100.527)" fill-rule="evenodd"/>
      <path id="Fill-71" d="M862.152,558.415a25.491,25.491,0,0,1-2.453-4.447,17.055,17.055,0,0,1-1.883-4.643c-.163-.819-.261-1.656-.448-2.469a6.936,6.936,0,0,1-.356-2.25c.075-.838.465-3.364,1.739-3.085.741.162.592.954.6,1.533a6.828,6.828,0,0,0,.278,1.959c.461,1.5,1.559,2.826,2.255,4.235a16.89,16.89,0,0,0,2.48,3.753,26.99,26.99,0,0,0,3.191,3.07,12.668,12.668,0,0,1,2.933,2.532c.435.661.508.859,1.307,1.041a4.952,4.952,0,0,1,1.794.768,8.607,8.607,0,0,0,1.772,1.245c.626.25,1.29.4,1.922.632,1.462.54,2.739,1.451,4.233,1.961.773.264,1.558.49,2.34.724a5.324,5.324,0,0,1,1.883.739c.869.711,1.356,2.524.6,3.469-.818,1.017-2.738.381-3.8.251-.014.069-.027.139-.041.208a48.77,48.77,0,0,1-5.406-1.136,14.313,14.313,0,0,1-2.591-1.193,12.071,12.071,0,0,0-2.206-.793,3.147,3.147,0,0,1-1.653-1.16c-.545-.755-.775-.53-1.616-.714-1.35-.3-2.514-1.829-3.443-2.755-1.132-1.129-2.4-2.246-3.422-3.475" transform="translate(-832.648 -278.012)" fill-rule="evenodd"/>
      <path id="Fill-73" d="M376.819,120.534c-.315-.5-1.414-.95-1.919-1.275-.69-.443-1.369-.9-2.034-1.376-1.206-.87-2.048-.3-3.117.535a6.712,6.712,0,0,0-2.622,6.053c0,.715-.2,1.91.353,2.5.526.564,1.618.509,2.313.649.91.184,2.284,1.335,3.226,1,.826-.3.534-1.77.6-2.419a6.645,6.645,0,0,1,1.275-3.37,6.937,6.937,0,0,1,1.349-1.316c.386-.294.889-.482.577-.977m3.622,3.675a11.878,11.878,0,0,0-2.308.792,5.3,5.3,0,0,0-1.5.727c-.647.576-.385,1.486-.535,2.24-.088.441-.315.821-.152,1.279.19.535.751.627,1.036,1.062.416.637-.121,1.536-.48,2.079-.623.942-1.474.461-2.436.32a19.146,19.146,0,0,1-3.463-.6c-.909-.31-1.662-1.03-2.356-.073-.258.357-.312.673-.821.538-.423-.111-.853-.686-1.144-.98-1.81-1.833-2.242-4.337-2.272-6.808a13.931,13.931,0,0,1,2.324-7.641,5.725,5.725,0,0,1,1.039-1.428c.432-.369.994-.514,1.385-.945.583-.642.448-1.942,1.377-2.225.979-.3,2.387.888,3.129,1.4,1.044.716,2.065,1.461,3.07,2.228a72.855,72.855,0,0,1,6.5,5.094,1.867,1.867,0,0,1,.267,2.524c-.663.761-1.8.267-2.658.417" transform="translate(-89.31 -57.952)" fill-rule="evenodd"/>
      <path id="Fill-75" d="M593.781,528.533a40.254,40.254,0,0,1,1.976-7.1c.553-1.5,1.816-4.071,3.832-3.922,2.22.163.732,3.06.516,4.212-.843,4.507-1.33,9.118-2,13.656-.33,2.248-.43,4.566-.961,6.779a18.034,18.034,0,0,1-1.083,3.146c-.29.647-.636,1.488-1.36,1.779-2.2.885-1.65-2.982-1.626-3.935q.09-3.5.172-7l-.18,0c.334-2.53.276-5.08.711-7.6" transform="translate(-418.153 -265.701)" fill-rule="evenodd"/>
      <path id="Fill-77" d="M26.194,618.175a7.646,7.646,0,0,0,3.407.571c.918-.088,1.826-.274,2.741-.39a23.637,23.637,0,0,0,6.773-1.919,21.577,21.577,0,0,0,5.436-3.365,28.69,28.69,0,0,0,2.393-2.409,2.951,2.951,0,0,1,1.9-1.164,10.566,10.566,0,0,1-1.059,3.286,19.254,19.254,0,0,1-1.6,2.547,18.553,18.553,0,0,1-4.436,4.233,17.757,17.757,0,0,1-5.528,2.6c-1.1.278-2.228.444-3.343.658a9.585,9.585,0,0,1-3.152.258,21.361,21.361,0,0,1-3.045-.457,8.079,8.079,0,0,1-2.171-1.165c-1.286-.876.115-3.8,1.689-3.29" transform="translate(410.927 -312.893)" fill-rule="evenodd"/>
      <path id="Fill-79" d="M150.8,31.595c-.6.8-1.883.806-1.8-.368a12.681,12.681,0,0,1,.759-3.153,10.559,10.559,0,0,0,.3-3.243,36.544,36.544,0,0,0-.522-7.627c-.466-2.447-.767-4.923-1.312-7.356-.535-2.387-1.5-4.644-2.1-7.011-.185-.731-.333-2.158.737-2.325.89-.139,1.414,1.109,1.759,1.7a29.011,29.011,0,0,1,3.064,5.956,32.055,32.055,0,0,1,1.292,6.111c.225,2.148.192,4.318.323,6.472-.215,2.5-.1,5.273-.905,7.673a11.721,11.721,0,0,1-1.6,3.174" transform="translate(247.041 -0.5)" fill-rule="evenodd"/>
      <path id="Fill-82" d="M845.039,56.823a2.426,2.426,0,0,1-.081,2.539c-1.1,1.44-2.845-1.84-3.111-2.755a49.639,49.639,0,0,1-1.622-6.034A50.145,50.145,0,0,1,840,44.116a44.2,44.2,0,0,1,1.109-7.47c.531-2.17,1.1-4.406,2.862-5.868.735-.608,1.24-.148,1.343.719a4.789,4.789,0,0,1-.57,2.744c-1.016,1.957-1.018,4.244-1.246,6.431-.452,4.35-.706,8.686.433,12.954a25.2,25.2,0,0,0,1.106,3.2" transform="translate(-783.017 -15.889)" fill-rule="evenodd"/>
      <path id="Fill-84" d="M89.3,181.338a26.632,26.632,0,0,1-.9,2.92,24.555,24.555,0,0,1-2.738,5.229,29.382,29.382,0,0,1-6.958,7.091c-.876.62-3,2.353-4.14,1.774-1.557-.791.526-2.809,1.159-3.4,1.3-1.22,2.6-2.449,3.92-3.654a26.3,26.3,0,0,0,3.351-4.2c1.051-1.458,2.078-2.935,3.03-4.46.493-.789.922-1.616,1.411-2.406a11.4,11.4,0,0,1,1.6-1.728c.454.216.4.178.518.59a3.111,3.111,0,0,1,.031.7,6.671,6.671,0,0,1-.279,1.549" transform="translate(345.828 -91.807)" fill-rule="evenodd"/>
      <path id="Fill-86" d="M293.263,206.4c-2.469-2.236-5.179-4.126-7.511-6.509-.586-.6-1.04-.95-.532-1.769.339-.547.729-.824,1.3-.45,1.37.9,2.675,2,3.994,2.974a82.856,82.856,0,0,1,7.956,6.29,21.526,21.526,0,0,1,2.986,3.459c.9,1.324,1.582,2.668.574,4.151-2.935-2.7-5.815-5.471-8.77-8.147" transform="translate(30.115 -101.553)" fill-rule="evenodd"/>
      <path id="Fill-88" d="M900.682,593.516c.442-.109,1.177.38,1.506.6,1.31.863,2.665,1.66,3.989,2.5,1.22.774,2.424,1.573,3.624,2.377,1,.669,1.656,1.491,1.3,2.755-.161.577-.427,1.252-1.1.922a12.676,12.676,0,0,0-1.455-.669,27.115,27.115,0,0,1-4-1.651c-2.2-1.2-4.261-3.063-4.555-5.684.163-.371.21-1.031.682-1.147" transform="translate(-878.083 -304.685)" fill-rule="evenodd"/>
      <path id="Fill-90" d="M623.6,538.857c.447-.488,1-.494,1.232.1a5.213,5.213,0,0,1-.159,2.252q-.212,1.481-.466,2.955c-.1.574-.171,2.357-.924,2.589-1.155.356-1.184-2.454-1.283-3.027.243-.83.475-1.663.72-2.493a6.185,6.185,0,0,1,.88-2.372" transform="translate(-456.407 -276.473)" fill-rule="evenodd"/>
      <path id="Fill-92" d="M223.875,438.052c.277-.132.49-.074.548-.4.049-.273-.38-.558-.446-.792-.235-.845.651.044.971.31q-.456,1.129-.914,2.256c-.345-.136-.69-.275-1.035-.414.33-.447.371-.717.874-.957" transform="translate(137.896 -224.151)" fill-rule="evenodd"/>
      <path id="Fill-94" d="M558.86,147.1a4.618,4.618,0,0,1-2.005-.177,10.017,10.017,0,0,1-1.743-.473c-1.333-.52-1.219-2.1-.912-3.322a26.288,26.288,0,0,1,2.07-4.754c.38-.793.747-1.586,1.093-2.4.261-.611.605-1.468,1.4-1.474,1.22-.01.625,2.865.431,3.549a32.938,32.938,0,0,1-2.151,4.921,21.033,21.033,0,0,0,2.117.116c.725-.024.923,0,1.1.807.255,1.171-.1,2.776-1.395,3.2" transform="translate(-358.697 -69.237)" fill-rule="evenodd"/>
      <path id="Fill-96" d="M536.577,127.366c-1.315-.081-2.624-.219-3.932-.366-.962-.109-2.642-.128-3.325-.889a1.954,1.954,0,0,1,.025-2.175c.487-.639,1.625-.387,2.348-.387a12.9,12.9,0,0,1,5.593,1.153c.641.316,2.084.891,1.931,1.753-.192,1.082-1.835.96-2.639.911" transform="translate(-325.418 -63.594)" fill-rule="evenodd"/>
      <path id="Fill-98" d="M548.537,162.532c1.1.275.887,2.155.548,2.946a2.772,2.772,0,0,1-2.959,1.395c-.564-.056-1.376.147-1.8-.326a1.871,1.871,0,0,1-.117-1.926,4.571,4.571,0,0,1,2.092-1.4c.6-.279,1.547-.857,2.235-.684" transform="translate(-342.853 -83.6)" fill-rule="evenodd"/>
      <path id="Fill-100" d="M539.008,138.909c-.086-1.077.53-3.5,1.967-3.406.683.043,1.265,1.02,1.39,1.621a4.058,4.058,0,0,1-.216,1.879c-.272,1-.681,2.542-2.01,2.321-1.1-.184-1.133-1.5-1.13-2.415" transform="translate(-333.47 -69.75)" fill-rule="evenodd"/>
      <path id="Fill-102" d="M566.822,139.993a1.027,1.027,0,0,1-1.123.308c-.6-.273-.5-.994-.5-1.507l-.2-.065c.341-.946.564-2.925,1.749-3.193,1.162-.263,1.247,1.029,1.137,1.834a4.7,4.7,0,0,1-1.065,2.624" transform="translate(-371.645 -69.75)" fill-rule="evenodd"/>
      <path id="Fill-104" d="M491.808,144.5c.578.058,1.664.326,1.57,1.05-.137,1.055-1.791,1.244-2.632,1.346-1,.122-2.375.021-1.428-1.227a3.383,3.383,0,0,1,2.49-1.169" transform="translate(-260.091 -74.366)" fill-rule="evenodd"/>
      <path id="Fill-108" d="M392.328,403.5l.62,1.213-1.948.248c-.028-.515.982-1.153,1.327-1.461" transform="translate(-111.926 -207.223)" fill-rule="evenodd"/>
    </g>
  </g>
</svg>
