<svg xmlns="http://www.w3.org/2000/svg" width="256" height="256" viewBox="0 0 256 256">
  <g id="deebo_256_x_256" data-name="deebo 256 x 256" transform="translate(11420 23727)">
    <rect id="Rectangle_82" data-name="Rectangle 82" width="256" height="256" rx="20" transform="translate(-11420 -23727)" fill="#fff"/>
    <g id="Group_283" data-name="Group 283">
      <path id="Path_84" data-name="Path 84" d="M71.6-27.851a21.708,21.708,0,0,1,12.446,7.6,20.811,20.811,0,0,1,4.6,13.365q0,11.158-7.418,17.412T59.955,16.782H19.614v-86.69h39.36q13.243,0,20.477,5.763t7.234,16.431a20.242,20.242,0,0,1-4.169,13.059A19.213,19.213,0,0,1,71.6-27.851ZM40.581-34.472H54.314q10.913,0,10.913-9.319T54.069-53.11H40.581ZM55.541-.262q11.649,0,11.649-9.564a9.111,9.111,0,0,0-3.065-7.3q-3.065-2.636-8.706-2.636H40.581v19.5ZM131.686-52.5a38.475,38.475,0,0,1,18.209,4.23,31.013,31.013,0,0,1,12.63,12.2,36.639,36.639,0,0,1,4.6,18.638,36.639,36.639,0,0,1-4.6,18.638,31.013,31.013,0,0,1-12.63,12.2,38.475,38.475,0,0,1-18.209,4.23,38.841,38.841,0,0,1-18.27-4.23,30.916,30.916,0,0,1-12.691-12.2,36.639,36.639,0,0,1-4.6-18.638,36.639,36.639,0,0,1,4.6-18.638,30.916,30.916,0,0,1,12.691-12.2A38.841,38.841,0,0,1,131.686-52.5Zm0,18.147A13.361,13.361,0,0,0,121.57-30q-4.108,4.353-4.108,12.568T121.57-4.921A13.451,13.451,0,0,0,131.686-.63,13.257,13.257,0,0,0,141.74-4.921q4.046-4.292,4.046-12.507T141.74-30A13.169,13.169,0,0,0,131.686-34.349Z" transform="translate(-11405.17 -23534.912)" fill="#070707"/>
      <path id="Path_86" data-name="Path 86" d="M206.728-74.2l-2.575,59.96H186.373L183.8-74.2Zm-.49,70.014V16.782H184.411V-4.186Z" transform="matrix(0.966, 0.259, -0.259, 0.966, -11405.947, -23585.568)" fill="#070707"/>
      <path id="Path_85" data-name="Path 85" d="M-113.117-35.723a37.285,37.285,0,0,1-4.424,18.344A30.992,30.992,0,0,1-130.267-4.9,40.586,40.586,0,0,1-149.8-.428H-176.35V-70.72H-149.8q11.334,0,19.586,4.375a30.52,30.52,0,0,1,12.676,12.329A37,37,0,0,1-113.117-35.723ZM-151.3-15.64q9.942,0,15.46-5.269t5.518-14.814q0-9.545-5.518-14.814t-15.46-5.269h-8.053V-15.64ZM-50.778-29.658a23.451,23.451,0,0,1-.5,4.573H-89.752q.3,6.264,3.182,9a10.261,10.261,0,0,0,7.357,2.734,10.056,10.056,0,0,0,6.264-1.889,8.821,8.821,0,0,0,3.281-4.872h18A23.513,23.513,0,0,1-56.445-9.624a25.436,25.436,0,0,1-9.346,7.258A29.592,29.592,0,0,1-78.418.268a29.816,29.816,0,0,1-14.466-3.43,24.509,24.509,0,0,1-9.893-9.893,30.694,30.694,0,0,1-3.579-15.112,30.972,30.972,0,0,1,3.53-15.162,24.188,24.188,0,0,1,9.893-9.843A30.1,30.1,0,0,1-78.418-56.6,30.1,30.1,0,0,1-63.9-53.222a23.881,23.881,0,0,1,9.694,9.495A28.264,28.264,0,0,1-50.778-29.658Zm-17.2-2.585q.1-5.468-2.933-8.2a10.8,10.8,0,0,0-7.506-2.734A11.134,11.134,0,0,0-86.173-40.4q-3.082,2.784-3.48,8.153Zm78.743,2.585a23.452,23.452,0,0,1-.5,4.573H-28.209q.3,6.264,3.182,9a10.261,10.261,0,0,0,7.357,2.734,10.056,10.056,0,0,0,6.264-1.889,8.821,8.821,0,0,0,3.281-4.872h18A23.513,23.513,0,0,1,5.1-9.624,25.436,25.436,0,0,1-4.248-2.367,29.592,29.592,0,0,1-16.875.268a29.816,29.816,0,0,1-14.466-3.43,24.509,24.509,0,0,1-9.893-9.893,30.7,30.7,0,0,1-3.579-15.112,30.972,30.972,0,0,1,3.53-15.162,24.189,24.189,0,0,1,9.893-9.843A30.1,30.1,0,0,1-16.875-56.6a30.1,30.1,0,0,1,14.516,3.38,23.881,23.881,0,0,1,9.694,9.495A28.264,28.264,0,0,1,10.765-29.658Zm-17.2-2.585q.1-5.468-2.933-8.2a10.8,10.8,0,0,0-7.506-2.734A11.134,11.134,0,0,0-24.63-40.4q-3.082,2.784-3.48,8.153Z" transform="translate(-11209.207 -23610.008)" fill="#070707"/>
    </g>
  </g>
</svg>
