<svg xmlns="http://www.w3.org/2000/svg" width="347.684" height="74.467" viewBox="0 0 347.684 74.467">
  <path id="deebo_logo_text" data-name="deebo logo text" d="M-113.117-35.723a37.285,37.285,0,0,1-4.424,18.344A30.992,30.992,0,0,1-130.267-4.9,40.586,40.586,0,0,1-149.8-.428H-176.35V-70.72H-149.8q11.334,0,19.586,4.375a30.52,30.52,0,0,1,12.676,12.329A37,37,0,0,1-113.117-35.723ZM-151.3-15.64q9.942,0,15.46-5.269t5.518-14.814q0-9.545-5.518-14.814t-15.46-5.269h-8.053V-15.64ZM-50.778-29.658a23.451,23.451,0,0,1-.5,4.573H-89.752q.3,6.264,3.182,9a10.261,10.261,0,0,0,7.357,2.734,10.056,10.056,0,0,0,6.264-1.889,8.821,8.821,0,0,0,3.281-4.872h18A23.513,23.513,0,0,1-56.445-9.624a25.436,25.436,0,0,1-9.346,7.258A29.592,29.592,0,0,1-78.418.268a29.816,29.816,0,0,1-14.466-3.43,24.509,24.509,0,0,1-9.893-9.893,30.694,30.694,0,0,1-3.579-15.112,30.972,30.972,0,0,1,3.53-15.162,24.188,24.188,0,0,1,9.893-9.843A30.1,30.1,0,0,1-78.418-56.6,30.1,30.1,0,0,1-63.9-53.222a23.881,23.881,0,0,1,9.694,9.495A28.264,28.264,0,0,1-50.778-29.658Zm-17.2-2.585q.1-5.468-2.933-8.2a10.8,10.8,0,0,0-7.506-2.734A11.134,11.134,0,0,0-86.173-40.4q-3.082,2.784-3.48,8.153Zm78.743,2.585a23.452,23.452,0,0,1-.5,4.573H-28.209q.3,6.264,3.182,9a10.261,10.261,0,0,0,7.357,2.734,10.056,10.056,0,0,0,6.264-1.889,8.821,8.821,0,0,0,3.281-4.872h18A23.513,23.513,0,0,1,5.1-9.624,25.436,25.436,0,0,1-4.248-2.367,29.592,29.592,0,0,1-16.875.268a29.816,29.816,0,0,1-14.466-3.43,24.509,24.509,0,0,1-9.893-9.893,30.7,30.7,0,0,1-3.579-15.112,30.972,30.972,0,0,1,3.53-15.162,24.189,24.189,0,0,1,9.893-9.843A30.1,30.1,0,0,1-16.875-56.6a30.1,30.1,0,0,1,14.516,3.38,23.881,23.881,0,0,1,9.694,9.495A28.264,28.264,0,0,1,10.765-29.658Zm-17.2-2.585q.1-5.468-2.933-8.2a10.8,10.8,0,0,0-7.506-2.734A11.134,11.134,0,0,0-24.63-40.4q-3.082,2.784-3.48,8.153Zm68.2-4.375a17.6,17.6,0,0,1,10.091,6.164,16.874,16.874,0,0,1,3.728,10.837q0,9.048-6.015,14.118T52.324-.428H19.614V-70.72H51.529q10.738,0,16.6,4.673T74-52.725a16.413,16.413,0,0,1-3.38,10.589A15.579,15.579,0,0,1,61.769-36.618ZM36.615-41.987H47.751q8.849,0,8.849-7.556T47.552-57.1H36.615Zm12.13,27.739q9.445,0,9.445-7.755A7.388,7.388,0,0,0,55.7-27.918q-2.486-2.138-7.059-2.138H36.615v15.808ZM110.487-56.6a31.2,31.2,0,0,1,14.764,3.43,25.147,25.147,0,0,1,10.241,9.893,29.709,29.709,0,0,1,3.728,15.112,29.709,29.709,0,0,1-3.728,15.112,25.147,25.147,0,0,1-10.241,9.893A31.2,31.2,0,0,1,110.487.268a31.494,31.494,0,0,1-14.814-3.43,25.068,25.068,0,0,1-10.29-9.893,29.709,29.709,0,0,1-3.728-15.112,29.709,29.709,0,0,1,3.728-15.112,25.068,25.068,0,0,1,10.29-9.893A31.494,31.494,0,0,1,110.487-56.6Zm0,14.715a10.834,10.834,0,0,0-8.2,3.53q-3.331,3.53-3.331,10.191t3.331,10.141a10.907,10.907,0,0,0,8.2,3.48,10.749,10.749,0,0,0,8.153-3.48q3.281-3.48,3.281-10.141T118.64-38.358A10.678,10.678,0,0,0,110.487-41.887ZM171.334-74.2l-2.088,48.618H154.83L152.742-74.2Zm-.4,56.771v17h-17.7v-17Z" transform="translate(176.35 74.199)" fill="#070707"/>
</svg>
