<svg xmlns="http://www.w3.org/2000/svg" width="190.995" height="78.943" viewBox="0 0 190.995 78.943">
  <path id="FontAwsome_arrow-left_" data-name="FontAwsome (arrow-left)" d="M46.508,111.306,42.5,115.319a4.321,4.321,0,0,1-6.128,0L1.224,80.2a4.321,4.321,0,0,1,0-6.128L36.367,38.924a4.321,4.321,0,0,1,6.128,0l4.013,4.013a4.343,4.343,0,0,1-.072,6.2L24.653,69.891H186.607a4.328,4.328,0,0,1,4.339,4.339v5.785a4.328,4.328,0,0,1-4.339,4.339H24.653l21.783,20.753A4.312,4.312,0,0,1,46.508,111.306Z" transform="translate(0.05 -37.65)" fill="#fff"/>
</svg>
