<svg xmlns="http://www.w3.org/2000/svg" width="125.349" height="125.345" viewBox="0 0 125.349 125.345">
  <path id="FontAwsome_reddit_" data-name="FontAwsome (reddit)" d="M56.9,83.182a6.255,6.255,0,1,1,6.217-6.217A6.261,6.261,0,0,1,56.9,83.182Zm76.448-12.509A62.675,62.675,0,1,1,70.675,8,62.663,62.663,0,0,1,133.349,70.672ZM99.914,60.261A8.458,8.458,0,0,0,93.9,62.788,40.859,40.859,0,0,0,72.14,56.066l4.4-19.787,14,3.159a6.229,6.229,0,0,0,6.217,6.217,6.293,6.293,0,1,0-5.585-9.1L75.7,33.12a1.494,1.494,0,0,0-1.744,1.112L69.133,56.066a41.225,41.225,0,0,0-21.608,6.773,8.374,8.374,0,0,0-6.091-2.578c-8.82,0-11.7,11.852-3.639,15.87a18.238,18.238,0,0,0-.43,3.917c0,13.293,14.961,24.058,33.359,24.058,18.474,0,33.435-10.766,33.435-24.058a16.143,16.143,0,0,0-.48-3.993A8.339,8.339,0,0,0,99.914,60.261ZM82.5,89.626c-4.6,4.6-19.232,4.524-23.655,0a1.527,1.527,0,0,0-2.1,0,1.482,1.482,0,0,0,0,2.173c5.762,5.762,22.062,5.762,27.85,0a1.482,1.482,0,0,0,0-2.173A1.527,1.527,0,0,0,82.5,89.626Zm1.946-18.953a6.255,6.255,0,1,0,6.293,6.293A6.245,6.245,0,0,0,84.448,70.672Z" transform="translate(-8 -8)" fill="#b5b5b5"/>
</svg>
