<svg xmlns="http://www.w3.org/2000/svg" width="164.119" height="125.345" viewBox="0 0 164.119 125.345">
  <path id="FontAwsome_stumbleupon_" data-name="FontAwsome (stumbleupon)" d="M164.119,129.919v22.745a36.682,36.682,0,0,1-73.362.359V130.115l11.194,5.221,16.676-4.96v23.039a8.73,8.73,0,0,0,17.459,0v-23.5Zm-73.33-18.993,11.194,5.221,16.676-4.96V99.57c0-19.743-16.676-35.57-36.583-35.57C62.234,64,45.492,79.729,45.492,99.309v53a8.713,8.713,0,0,1-17.427,0V129.919H0v22.745a36.664,36.664,0,0,0,36.681,36.647c20.1,0,36.681-16.154,36.681-36.158V100.843a8.713,8.713,0,0,1,17.427,0Z" transform="translate(0 -64)" fill="#b5b5b5"/>
</svg>
