<svg xmlns="http://www.w3.org/2000/svg" width="107.658" height="125.345" viewBox="0 0 107.658 125.345">
  <path id="FontAwsome_drupal_" data-name="FontAwsome (drupal)" d="M112.6,55.833c-6.224-3.925-12.2-5.467-18.139-9.392C90.82,43.974,85.689,38.03,81.428,32.9c-.757,8.214-3.224,11.55-6.168,13.877-5.972,4.766-9.757,6.224-15,9.055C55.831,58.16,32,74.56,32,105.118c0,30.614,25.737,53.126,54.334,53.126,28.513,0,53.325-20.746,53.325-52.145C139.658,74.616,116.388,58.16,112.6,55.833Zm.7,91.282c-5.635,5.635-25.26,8.046-32.718,1.177-1.346-1.346.084-3.364,1.822-3.364,0,0,4.766,3.729,14.439,3.729,7.57,0,12.9-2.159,15.28-3.925C113.837,143.442,114.482,145.937,113.3,147.115Zm-15.28-14.746c2.439-1.009,8.13-1.065,10.317.364,1.149.785,4.514,5.271,1.738,6.644-2.355,1.177-.336-4.4-7.43-4.4-4.121,0-5.467,1.458-7.486,3.084-1.963,1.682-2.748,2.243-3.42,1.318C90.063,137.078,96.2,133.125,98.025,132.368Zm25.933,4.85c-4.262-.28-12.756-13.681-18.223-13.877-8.663-.252-29.186,22.624-45.222,11.775-10.878-7.457-4.093-29.381,14.523-29.493,13.878-.14,23.494,13.737,30.419,13.6,5.972-.084,17.326-11.719,22.933-11.719C142.041,107.5,134.92,138.144,123.958,137.219Z" transform="translate(-32 -32.9)" fill="#b5b5b5"/>
</svg>
