<svg xmlns="http://www.w3.org/2000/svg" width="190.995" height="78.943" viewBox="0 0 190.995 78.943">
  <path id="FontAwsome_arrow-left_" data-name="FontAwsome (arrow-left)" d="M144.387,111.306l4.013,4.013a4.321,4.321,0,0,0,6.128,0l35.142-35.124a4.321,4.321,0,0,0,0-6.128L154.528,38.924a4.321,4.321,0,0,0-6.128,0l-4.013,4.013a4.343,4.343,0,0,0,.072,6.2l21.783,20.753H4.289A4.328,4.328,0,0,0-.05,74.229v5.785a4.328,4.328,0,0,0,4.339,4.339H166.242l-21.783,20.753A4.312,4.312,0,0,0,144.387,111.306Z" transform="translate(0.05 -37.65)" fill="#fff"/>
</svg>
