<svg xmlns="http://www.w3.org/2000/svg" width="125.349" height="125.345" viewBox="0 0 125.349 125.345">
  <path id="FontAwsome_pied-piper-pp_" data-name="FontAwsome (pied-piper-pp)" d="M57.442,71.9c0,5.9-3.973,10.66-8.87,10.66a9.668,9.668,0,0,1-4.813-1.035V62.5a9.07,9.07,0,0,1,4.813-1.175c4.9,0,8.87,4.728,8.87,10.576ZM72.16,90.643a9.07,9.07,0,0,0-4.813,1.175v19.026a9.668,9.668,0,0,0,4.813,1.035c4.868,0,8.87-4.728,8.87-10.576C81.029,95.4,77.028,90.643,72.16,90.643ZM125.349,45.43v98.485a13.434,13.434,0,0,1-13.43,13.43H13.43A13.434,13.434,0,0,1,0,143.915V45.43A13.433,13.433,0,0,1,13.43,32h98.489A13.434,13.434,0,0,1,125.349,45.43ZM51.762,94.421c11.472,0,20.761-9.96,20.761-22.271S63.234,49.878,51.762,49.878a20.811,20.811,0,0,0-9.681,2.462H29.295v57.72l14.493-2.826V93.078a23.366,23.366,0,0,0,7.974,1.343Zm44.32,7.079c0-12.311-9.289-22.271-20.677-22.271a17.357,17.357,0,0,0-2.686.2,22.914,22.914,0,0,1-5.372,9.345,21.121,21.121,0,0,1-14.493,6.939v43.731l14.493-2.826V122.455a22.92,22.92,0,0,0,8.03,1.315C86.793,123.77,96.082,113.81,96.082,101.5Z" transform="translate(0 -32)" fill="#b5b5b5"/>
</svg>
