<svg xmlns="http://www.w3.org/2000/svg" width="35.393" height="38.876" viewBox="0 0 35.393 38.876">
  <g id="Solid" transform="translate(-87.999 -34)">
    <path id="Path_2" data-name="Path 2" d="M120.864,34a2.528,2.528,0,0,0-2.528,2.528V55.18a3.371,3.371,0,0,1-3.371,3.371H96.631l4.954-4.954a2.528,2.528,0,0,0-3.575-3.575l-9.27,9.27a2.528,2.528,0,0,0,0,3.575l9.27,9.27a2.528,2.528,0,1,0,3.575-3.575l-4.954-4.954h18.335a8.427,8.427,0,0,0,8.427-8.427V36.528A2.528,2.528,0,0,0,120.864,34Z" transform="translate(0)" fill="#fff"/>
  </g>
</svg>
